<svg version="1.2" xmlns="http://www.w3.org/2000/svg" viewBox="0 0 1529 421" width="1529" height="421">
	<title>applied-logo-svg</title>
	<style>
		.s0 { fill: #007b85 } 
		.s1 { fill: #1e196a } 
	</style>
	<g id="Layer">
		<g id="Layer">
			<path id="Layer" class="s0" d="m743.6 118.9c27.9 1.3 27.9 9.5 27.9 43.7v77.6c-0.8 25.6-1 31-29.8 34.7l-2.2 0.3v2.1 3.7 2.5h2.5 88.9 2.4v-2.5-3.7-2.1l-2.1-0.4c-32.1-4.5-32.1-7.9-32.1-34.7v-121q0 0 0.5 0c16.9 0.5 31.9 5.9 41.2 15.1 7.7 7.7 11.6 17.5 11.6 29.5 0 21.2-12.9 34-38.4 37.8l-2.6 0.4 0.6 2.6 0.7 3.7 0.4 2.2 2.3-0.4c43.3-4.6 68.2-24 68.2-53.1 0-4-0.9-18-13.4-30-14.2-13.6-37.9-19.9-70.4-18.7l-56.1 2-2.4 0.1v2.4 3.7 2.3z"/>
		</g>
		<g id="Layer">
			<path id="Layer" class="s0" d="m894 283.6h144 1.8l0.5-1.7 14.7-46.5 0.7-2.1-2.1-0.9-3.3-1.6-1.9-0.8-1.1 1.8-1.2 2c-18.8 30.3-25.1 40.5-62 37.9l-28.5-2-1.3-0.1c0 0 0.1 0.1-0.2-0.7-3-11-3-23.1-3-34.8v-82c0-24.4 0-30.9 29.8-34.7l2.1-0.3v-2.2-3.7-2.5h-2.5-86.5-2.5v2.5 3.7 2.2l2.1 0.3c28.9 3.7 29.1 9 29.8 34.8 0-0.1 0 87.9 0 87.9-0.7 25.7-0.9 31-29.8 34.7l-2.1 0.3v2.1 3.7 2.5h2.5z"/>
		</g>
		<g id="Layer">
			<path id="Layer" class="s0" d="m1113.7 152.2c0.7-25.8 0.9-31.1 29.7-34.8l2.2-0.3v-2.2-3.7-2.5h-2.5-86.6-2.4v2.5 3.7 2.2l2.1 0.3c28.8 3.7 29 9 29.8 34.8 0-0.1 0 87.9 0 87.9-0.8 25.7-1 31-29.8 34.7l-2.1 0.3v2.1 3.7 2.5h2.4 86.6 2.5v-2.5-3.7-2.1l-2.2-0.3c-28.8-3.7-29-9-29.7-34.8 0 0.2 0-87.9 0-87.8z"/>
		</g>
		<g id="Layer">
			<path id="Layer" class="s0" d="m1168.4 283.6h143.3 1.8l0.6-1.7c5.9-17.2 8.6-32.8 8.9-50.2v-2.5h-2.5-3.8-2l-0.5 2c-6.1 29.8-20.7 41.5-52.4 41.5-15.4 0-25.5-2.7-30.9-8.2-5.6-5.7-5.4-13.6-5.4-21.3q0-1.6 0-3.3v-37.8-0.8h0.8 23.6c20.6 0 31.5 0.9 34.4 20.2l0.3 2.1h2.1 3.9 2.5v-2.4-55.8-2.5h-2.5-3.9-2.1l-0.2 2.1c-2.6 19.4-15.3 20.9-34.4 20.9h-23.5-0.9v-0.9-63.8-1.6h2 20.6c25.6 0 47.6 0 49.3 30.2l0.2 2.2h2.3 3.9 2.3l0.2-2.2 3-38.5 0.3-2.7h-2.7-138.3-2.5v2.5 3.7 2.2l2.1 0.3c28.9 3.7 29.1 9.1 29.8 34.8 0-0.1 0 87.9 0 87.9-0.7 25.7-0.9 31-29.8 34.8l-2.1 0.2v2.1 3.8 2.4h2.2z"/>
		</g>
		<g id="Layer">
			<g id="Layer">
				<path id="Layer" fill-rule="evenodd" class="s0" d="m1525.5 196.6c0 12.9-3.1 37.4-23.7 57.9-20.1 19.9-50.7 29.8-91.1 29.5l-76.8-0.5h-2.5v-8.4l2.1-0.3c28.9-3.7 29.1-9 29.8-34.7 0 0 0-86.8 0-86.7-0.7-25.8-0.9-31.1-28.3-34.8l-2.1-0.3v-8.1h2.4l62.3-2c47.2-1.4 82.2 8.5 103.8 29.4 20.9 20.2 24.1 45.7 24.1 59zm-34.9 3.8c0-22.7-7.1-41.3-21.1-55.2-17.3-17.2-45.1-26.7-78.6-27.1-0.1 4.4 0 124.5 0 124.5 0 16 2.6 30.3 32.6 30.3 31 0 67.1-19 67.1-72.5z"/>
			</g>
		</g>
		<path id="Layer" fill-rule="evenodd" class="s0" d="m698.5 163.7c0-11.9-3.9-21.7-11.5-29.4-9.4-9.3-24.5-14.7-41.8-15.1v121c0 26.8 0 30.3 32.2 34.8l2.1 0.3v8.4h-182.7v-8.8l1.9-0.4c11.5-2.5 21-5.5 21-16 0-10-8.7-32.2-15.6-49.9l-2.8-7.1h-64.4c-1.1 3-2.5 6.6-3.9 10.4-5.7 14.9-13.5 35.2-13.5 45.4 0 12.2 11 14.5 26.4 16.4 2 0.2 3.7 0.5 5.4 0.7l2.2 0.4v8.9h-86.5v-8.7l1.9-0.5c25.6-6.7 27.8-12 36.7-33.8l33.6-85 17.8-47c0.5-1.3 1-2.7 1.6-4 2.1-5.5 3.9-10.3 1.9-13.8l-1.4-2.5 2.7-1.1c8-3.1 14.9-8.1 20.8-14.9l2.7-3.1 1.4 3.8 65.5 169.1c13 33.4 31.5 34.1 37 33.7 28.4-1.8 27.8-10.5 28.5-35.7v-77.6c0-34.2 0-42.4-27.8-43.7l-2.4-0.1v-8.5l2.4-0.1 56-1.9c32.5-1.2 56.2 5.1 70.4 18.7 12.5 12 13.4 26 13.4 30 0 29.1-24.9 48.5-68.2 53.1l-2.2 0.3-0.4-2.2-0.8-3.7-0.5-2.6 2.6-0.4c25.4-3.8 38.3-16.6 38.3-37.8zm-202.9 19.5l-27.2-65.8-24.5 65.8z"/>
	</g>
	<g id="Layer">
		<path id="Layer" class="s1" d="m389.2 330.8h9.8v67.9h-9.8z"/>
		<path id="Layer" class="s1" d="m419 349.1h8.8v7.9h0.2c2.7-5.7 9.3-9.1 16.3-9.1 12.9 0 18.6 8 18.6 21.3v29.5h-9.1v-25.7c0-11.6-2.5-17.2-10.5-17.7-10.5 0-15.1 8.4-15.1 20.4v23h-9.2z"/>
		<path id="Layer" fill-rule="evenodd" class="s1" d="m517.3 391.8h-0.2c-2.4 3.7-8 8.1-16.9 8.1-15.1 0-21.4-13.3-21.4-26.9 0-13.3 7.1-25.1 21.5-25.1 8.7 0 13.7 3.4 16.5 8h0.2v-30.2h9.1v73h-8.7c0 0 0-6.9-0.1-6.9zm-0.3-17.8c0-10.3-6.4-18.6-14.2-18.6-7.9 0-14.2 8.3-14.2 18.6 0 10.2 6.3 18.5 14.2 18.5 7.8 0 14.2-8.3 14.2-18.5z"/>
		<path id="Layer" class="s1" d="m589.3 398.8h-8.8v-7.9h-0.2c-2.7 5.7-9.3 9.1-16.3 9.1-12.9 0-18.6-8-18.6-21.3v-29.5h9.2v25.7c0 11.6 2.5 17.2 10.5 17.7 10.4 0 15.1-8.4 15.1-20.4v-23h9.2c0 0 0 49.6-0.1 49.6z"/>
		<path id="Layer" class="s1" d="m604.7 389.1c3.6 2.3 8.8 3.4 11.4 3.4 4.2 0 9.3-1.7 9.3-7.1 0-9.1-21.5-8.3-21.5-22.2 0-10.3 7.7-15.3 17.6-15.3 4.3 0 7.8 0.9 11.3 2l-0.7 8c-2.1-1.3-7.5-2.6-9.7-2.6-4.7 0-8.7 2-8.7 6 0 10.1 21.5 7.2 21.5 23.1 0 10.6-8.5 15.5-17.3 15.5-4.7 0-9.4-0.5-13.7-2.7z"/>
		<path id="Layer" class="s1" d="m676.4 356.5h-13.2v27.1c0 5.8 3.5 8.9 7.8 8.9 2.8 0 4.8-0.8 6.1-1.7v7.8c-2 0.6-4.8 1.3-7.8 1.3-9.4 0-15.2-4.5-15.2-14.4v-29h-11.2v-7.4h11.2v-11.4l9.1-2.9v14.4h13.2z"/>
		<path id="Layer" class="s1" d="m691.5 349.1h8.6v7.7h0.1c2.5-5.1 7.8-8.8 13-8.8 2.7 0 4.1 0.3 6.1 0.7v8.1c-1.7-0.6-3.5-0.8-5.1-0.8-8.2 0-13.6 7.8-13.6 20.3v22.5h-9.1z"/>
		<path id="Layer" class="s1" d="m744 338h-10.4v-10.3h10.4zm-9.8 11.1h9.2v49.6h-9.2z"/>
		<path id="Layer" fill-rule="evenodd" class="s1" d="m766 352.6c4.6-2.7 10-4.7 16.4-4.7 14.3 0 20 7.1 20 20.6v20.5c0 5.7 0.1 8.3 0.4 9.7h-8.6v-6.4h-0.2c-2.1 3-7 7.5-15.3 7.5-10.7 0-18.3-4.6-18.3-15.5 0-12.5 13.7-16.4 23.1-16.4 3.6 0 6.1 0 9.8 0.2 0-8.5-3.2-13-12.3-13-5.2 0-10.7 2-14.5 5.1zm27.2 22.6c-2 0-3.9-0.2-5.9-0.2-5 0-17.2 0.8-17.2 9.6 0 5.3 5.1 8.1 9.3 8.1 9 0 13.8-5.7 13.8-13.1z"/>
		<path id="Layer" class="s1" d="m822.6 325.8h9.2v73h-9.2z"/>
		<path id="Layer" class="s1" d="m895.4 339.4h-21.1v-8.6h52v8.6h-21.1v59.3h-9.8z"/>
		<path id="Layer" fill-rule="evenodd" class="s1" d="m969.6 396.8c-3.5 1.3-7.5 3.2-15.7 3.2-17.7 0-25.7-10.7-25.7-26.9 0-14.7 9.2-25.1 23.2-25.1 16.6 0 21.9 12.1 21.9 28.1h-35.5c0 9.8 7.8 16.5 16.4 16.5 6.1 0 13.1-3.1 15.3-5v9.2zm-5.9-27.6c0-7.6-4.5-13.8-12.4-13.8-9 0-12.7 7.4-13.4 13.8z"/>
		<path id="Layer" class="s1" d="m1020.9 357.5c-3.5-1.4-7.1-2.1-10-2.1-10.2 0-15.9 9.2-15.9 18.6 0 8.8 4.7 18.5 16.5 18.5 3.2 0 7.1-1 9.9-2.8l0.7 8.2c-3.9 1.8-8.2 2-11.5 2-15 0-25.4-11.8-25.4-25.9 0-15.1 10.1-26 25.4-26 3.7 0 8.5 0.9 11.1 2z"/>
		<path id="Layer" class="s1" d="m1036.1 325.8h9.2v30.4h0.2c3.3-5.2 9.1-8.3 15.9-8.3 12.9 0 18.6 8 18.6 21.3v29.5h-9.1v-25.7c0-11.6-2.6-17.2-10.6-17.7-10.4 0-15.1 8.4-15.1 20.4v23h-9.1z"/>
		<path id="Layer" class="s1" d="m1099.3 349.1h8.8v7.9h0.2c2.7-5.7 9.3-9.1 16.3-9.1 12.9 0 18.6 8 18.6 21.3v29.5h-9.2v-25.7c0-11.6-2.5-17.2-10.5-17.7-10.4 0-15.1 8.4-15.1 20.4v23h-9.2v-49.6z"/>
		<path id="Layer" fill-rule="evenodd" class="s1" d="m1184.5 399.8c-14 0-25.3-11.6-25.3-25.9 0-14.4 11.3-26 25.3-26 14 0 25.2 11.6 25.2 26 0 14.3-11.2 25.9-25.2 25.9zm15.6-25.8c0-10.3-7-18.6-15.6-18.6-8.6 0-15.6 8.3-15.6 18.6 0 10.2 7 18.5 15.6 18.5 8.6 0 15.6-8.3 15.6-18.5z"/>
		<path id="Layer" class="s1" d="m1226.8 325.8h9.2v73h-9.2z"/>
		<path id="Layer" fill-rule="evenodd" class="s1" d="m1278.3 399.8c-14 0-25.3-11.6-25.3-25.9 0-14.4 11.3-26 25.3-26 14 0 25.3 11.6 25.3 26 0 14.3-11.3 25.9-25.3 25.9zm15.6-25.8c0-10.3-7-18.6-15.6-18.6-8.6 0-15.6 8.3-15.6 18.6 0 10.2 7 18.5 15.6 18.5 8.6 0 15.6-8.3 15.6-18.5z"/>
		<path id="Layer" fill-rule="evenodd" class="s1" d="m1363.4 396.6c0 15.1-7.8 23.8-25.6 23.8-5.3 0-9.9-0.7-17.9-3.4l1-8.5c7 3.2 11.2 4.5 17.9 4.5 9.7 0 15.3-6.6 15.3-17.1v-4.8h-0.1c-3.9 5.2-10.4 7.7-16.7 7.7-14.2 0-21.2-11.6-21.2-24.4 0-12.7 7.2-26.4 22.3-26.4 8.7 0 13.6 3.2 16.3 8.6h0.2v-7.4h8.5zm-9.2-23.2c0-10-6.3-18-14.1-18-7.9 0-14.2 8-14.2 18 0 10 6.3 18 14.2 18 7.8 0 14.1-8 14.1-18z"/>
		<path id="Layer" class="s1" d="m1393.5 338h-10.3v-10.3h10.3zm-9.7 11.1h9.1v49.6h-9.1z"/>
		<path id="Layer" fill-rule="evenodd" class="s1" d="m1451.4 396.8c-3.4 1.3-7.4 3.2-15.7 3.2-17.6 0-25.7-10.7-25.7-26.9 0-14.7 9.3-25.1 23.3-25.1 16.5 0 21.9 12.1 21.9 28.1h-35.5c0 9.8 7.7 16.5 16.4 16.5 6 0 13-3.1 15.2-5 0 0 0 9.2 0.1 9.2zm-5.9-27.6c0-7.6-4.5-13.8-12.4-13.8-9 0-12.7 7.4-13.3 13.8z"/>
		<path id="Layer" class="s1" d="m1467.4 389.1c3.6 2.3 8.7 3.4 11.4 3.4 4.1 0 9.3-1.7 9.3-7.1 0-9.1-21.6-8.3-21.6-22.2 0-10.3 7.8-15.3 17.6-15.3 4.3 0 7.8 0.9 11.4 2l-0.8 8c-2-1.3-7.4-2.6-9.7-2.6-4.6 0-8.7 2-8.7 6 0 10.1 21.6 7.2 21.6 23.1 0 10.6-8.5 15.5-17.4 15.5-4.6 0-9.4-0.5-13.6-2.7z"/>
	</g>
	<g id="Layer">
		<path id="Layer" class="s1" d="m0.5 160.6c0-11.7 1.3-23.1 3.6-34.1 6-27.4 18.9-52.1 36.8-72.3 26.1-29.5 63.1-49.4 104.6-53.4l-19.6 33.5 7.7 16.1-59 129.7 25.2-19.5 43-90.7 27.2 57c-41.6 25.7-91.9 62-149.1 112.1-13.1-23.4-20.4-49.8-20.4-78.4z"/>
		<path id="Layer" class="s1" d="m165.7 0c28.3 0.8 54.9 8.9 77.7 22.5 24.7 14.6 45 35.7 58.9 60.8-15.8-8.3-49.5-0.2-87.7 18.5z"/>
		<path id="Layer" class="s1" d="m309.7 98.8c0.6 1.3 1.1 2.6 1.1 2.6-15-9-47.6-0.7-87.5 18.5l-2.9-5.6c40.7-18.5 74-26.3 88.5-17.1 0 0 0.4 0.6 0.8 1.6z"/>
		<path id="Layer" class="s1" d="m315.9 117.1c0.5 1.2 0.9 2.6 0.9 2.6-16.5-9.3-46.4-1-84.9 18l-2.7-5.7c40.6-19 71.5-26.3 86.1-16.8-0.1 0 0 0.4 0.6 1.9z"/>
		<path id="Layer" class="s1" d="m237.5 149.7c31.3-12.4 55.2-17.7 64.7-6.3 8.1 9.6-9.6 40.6-36.9 63.9z"/>
		<path id="Layer" class="s1" d="m322.1 160.6c0 36.6-12.2 70.2-32.7 97.2l-21.2-44c26.1-24.3 46-51 52.9-69.6l0.7 6.9c0.3 3.1 0.3 6.3 0.3 9.5z"/>
		<path id="Layer" class="s1" d="m161.3 321.2c-43.4 0-82.8-17.2-111.7-45.1 48.2-39.9 98.6-75.5 142.9-101.8l34.6 72.7c5.6 12.1 0.9 17-5.9 17.3l-32.8 1.1v17.7c16.1-0.3 47.7-0.4 77.1-0.3-28 24-64.4 38.4-104.2 38.4z"/>
		<path id="Layer" class="s1" d="m44.1 270.6c-2.7-2.9-5.3-5.9-7.8-9 50.1-41.6 102.1-78.2 148-105.1l2.9 6.4c-40.6 25.1-88.9 60.2-143.1 107.7z"/>
		<path id="Layer" class="s1" d="m31.3 255.2c-2.3-3.1-4.5-6.3-6.5-9.7 51.2-42.6 104.2-80.1 150.7-107.1l3.1 6.6c-41.4 25.7-91.2 61-147.3 110.2z"/>
	</g>
	<path id="Layer" fill-rule="evenodd" class="s1" d="m1517.1 363.7c-6.3 0-11.4-5.1-11.4-11.4 0-6.2 5.1-11.3 11.4-11.3 6.2 0 11.3 5.1 11.3 11.3 0 6.3-5.1 11.4-11.3 11.4zm8.6-11.4c0-5-3.9-9.1-8.6-9.1-4.8 0-8.7 4.1-8.7 9.1 0 5.1 3.9 9.2 8.7 9.2 4.7 0 8.6-4.1 8.6-9.2zm-8.1-6.5c3 0 4.7 1.1 4.7 3.8 0 2.2-1.3 3.3-3.4 3.5l3.5 5.7h-2.5l-3.3-5.6h-1.4v5.6h-2.4v-13zm-2.5 5.5h2.2c1.4 0 2.6-0.1 2.6-1.9 0-1.6-1.4-1.8-2.6-1.8h-2.2z"/>
</svg>