<svg viewBox="0 0 147 30" fill="none" xmlns="http://www.w3.org/2000/svg">
<g clip-path="url(#clip0_28400_622)">
<path d="M0 4.99023H6.84405V15.6752L14.6259 4.99023H22.6133L14.2255 15.7068L23.2929 29.3264H14.9315L6.84405 16.3812V29.3264H0V4.99023Z" fill="white"/>
<path d="M32.6291 15.4381H35.158C36.6438 15.4381 37.3814 15.4381 37.9557 15.2379C39.4362 14.7637 39.7418 13.2516 39.7418 12.4718C39.7418 9.4739 37.1127 9.4739 35.158 9.4739H32.6291V15.4381ZM25.8535 4.99023H37.1127C41.4963 4.99023 43.1454 5.25894 44.5943 6.74471C45.3372 7.4876 46.2803 8.83639 46.2803 11.4655C46.2803 14.0946 45.2002 15.2747 44.0569 15.9808C42.5026 16.9607 41.0221 17.1293 40.3477 17.2294V17.3664C45.0685 17.5034 45.3372 19.5898 45.8746 23.3359C46.1117 24.985 46.4489 27.614 47.0232 29.3369H39.7102C39.3045 27.8564 39.1359 25.9966 38.9041 23.8417C38.5985 20.907 38.4984 19.8322 35.4636 19.8322H32.6343V29.3369H25.8588V4.99023H25.8535Z" fill="white"/>
<path d="M59.0622 19.3264L62.3235 9.74261H62.4236L65.3636 19.3158C67.3393 15.8806 68.1823 12.319 68.4721 9.2052L66.8072 4.99023H58.5827L56.1855 11.0651C56.607 13.7047 57.4658 16.5603 59.0622 19.3264Z" fill="white"/>
<path d="M51.1065 23.9307L48.9779 29.3258H55.7218L56.607 26.7073C54.157 25.8221 52.1549 24.6261 51.1065 23.9307Z" fill="white"/>
<path d="M67.882 26.6762L68.7987 29.3263H76.4173L74.0832 23.4043C73.7618 23.6414 71.2434 25.4486 67.8872 26.6762H67.882Z" fill="white"/>
<path d="M82.7924 9.8111H75.3741V4.99023H97.1865V9.8111H89.5996V29.3264H82.7924V9.8111Z" fill="white"/>
<path d="M109.384 24.9424C114.204 24.9424 115.016 20.4956 115.016 17.1237C115.016 13.7517 114.204 12.0341 113.467 10.954C112.492 9.60521 110.906 9.19952 109.42 9.19952C104.968 9.19952 103.757 13.0457 103.757 17.2238C103.757 21.1015 104.905 24.9424 109.384 24.9424ZM100.148 7.6874C103.214 4.5894 107.866 4.31543 109.652 4.31543C119.357 4.31543 121.992 11.2912 121.992 17.2238C121.992 26.934 115.116 29.9003 109.32 29.9003C102.85 29.9003 96.8124 26.3281 96.8124 17.2606C96.8124 15.6431 97.0811 10.7907 100.148 7.6874Z" fill="white"/>
<path d="M130.311 21.576C130.342 22.5559 130.411 25.3483 134.42 25.3483C134.995 25.3483 138.024 25.3483 138.024 22.5823C138.024 21.439 137.555 20.6645 135.933 20.2219L129.968 18.6729C128.282 18.2356 123.936 17.087 123.936 11.9975C123.936 8.05646 126.902 4.37891 134.183 4.37891C143.688 4.37891 144.094 9.53697 144.125 12.1292H137.281C137.281 11.3863 137.318 8.7572 134.078 8.7572C132.123 8.7572 130.875 9.8689 130.875 11.3231C130.875 13.1091 132.36 13.5465 133.335 13.8152L137.887 14.9953C141.122 15.8383 144.963 16.8499 144.963 22.008C144.963 27.4348 140.311 29.8636 134.21 29.8636C131.681 29.8636 127.603 29.4579 125.379 26.9658C123.593 25.0112 123.562 22.6192 123.525 21.5707H130.3L130.311 21.576Z" fill="white"/>
<path d="M144.805 6.66546H145.137C145.295 6.66546 145.4 6.64439 145.458 6.59697C145.516 6.54955 145.543 6.48633 145.543 6.41256C145.543 6.36515 145.527 6.31773 145.501 6.28085C145.474 6.2387 145.432 6.21235 145.385 6.19128C145.337 6.17547 145.248 6.16493 145.111 6.16493H144.8V6.676L144.805 6.66546ZM144.531 7.61383V5.92784H145.111C145.311 5.92784 145.453 5.94365 145.543 5.97526C145.632 6.00687 145.701 6.05956 145.753 6.13859C145.806 6.21762 145.832 6.29665 145.832 6.38622C145.832 6.5074 145.785 6.61804 145.701 6.70761C145.611 6.80245 145.495 6.84987 145.353 6.8604C145.411 6.88675 145.458 6.91836 145.495 6.94997C145.564 7.0132 145.648 7.12384 145.748 7.2819L145.954 7.61383H145.622L145.474 7.34512C145.358 7.13964 145.263 7.00793 145.19 6.95524C145.137 6.91836 145.069 6.89728 144.968 6.89728H144.81V7.61383H144.536H144.531ZM145.221 5.43785C145 5.43785 144.789 5.49581 144.579 5.60645C144.373 5.72236 144.204 5.88043 144.089 6.09117C143.973 6.30192 143.909 6.51794 143.909 6.74976C143.909 6.98158 143.967 7.19233 144.083 7.39781C144.199 7.60329 144.363 7.76662 144.568 7.88253C144.779 7.99844 144.989 8.0564 145.216 8.0564C145.443 8.0564 145.659 7.99844 145.869 7.88253C146.075 7.76662 146.238 7.60329 146.354 7.39781C146.47 7.19233 146.528 6.97632 146.528 6.74976C146.528 6.52321 146.47 6.30192 146.354 6.09117C146.238 5.88043 146.075 5.72236 145.864 5.60645C145.653 5.49581 145.443 5.43785 145.221 5.43785ZM145.221 5.17969C145.485 5.17969 145.743 5.24818 145.991 5.38517C146.243 5.51688 146.438 5.71183 146.581 5.96472C146.718 6.21762 146.791 6.47579 146.791 6.74976C146.791 7.02373 146.723 7.27663 146.586 7.52953C146.449 7.77716 146.254 7.9721 146.006 8.10909C145.759 8.24607 145.501 8.31457 145.227 8.31457C144.953 8.31457 144.694 8.24607 144.447 8.10909C144.199 7.9721 144.004 7.77716 143.867 7.52953C143.725 7.2819 143.656 7.01847 143.656 6.74976C143.656 6.48106 143.725 6.21235 143.867 5.96472C144.009 5.71183 144.204 5.52215 144.452 5.38517C144.705 5.24818 144.958 5.17969 145.221 5.17969Z" fill="white"/>
<path d="M75.7903 16.3593C75.7903 16.3593 73.2508 17.8767 73.2613 17.8504C76.5701 12.4236 74.6786 9.84194 74.6944 9.84721C74.6944 9.84721 73.4247 11.6017 73.4352 11.6122C73.7513 5.04215 68.588 0 68.588 0C68.588 0 71.7545 11.5648 64.9052 21.4015C64.6523 20.3056 63.6249 18.2719 63.6249 18.2719C63.6038 18.1612 63.6776 18.0664 63.7882 18.0664H64.4573C64.568 18.0664 64.6154 17.9874 64.5574 17.8925L64.1412 17.1707C64.0833 17.0759 63.9463 16.9916 63.8356 16.9916H63.6776C63.5669 16.9916 63.4194 16.9178 63.3509 16.8282C63.3509 16.8282 63.177 16.607 63.0875 16.4805C62.8188 16.117 61.1275 15.7271 60.5269 17.2129C60.2476 17.9083 59.6575 20.0843 59.5311 21.4225C52.6607 11.5806 55.8272 0 55.8272 0C55.8272 0 50.6639 5.04215 50.98 11.6122C50.9905 11.6017 49.7208 9.84721 49.7208 9.84721C49.7208 9.84721 48.4089 13.3456 51.1539 17.8504C51.1644 17.882 48.6249 16.3593 48.6249 16.3593C48.6249 16.3593 49.9631 21.1328 52.7239 22.7292C52.7608 22.7555 50.7376 22.8346 50.7376 22.8346C50.7376 22.8346 55.1107 26.1328 60.2213 26.9547L59.431 28.8356C59.3888 28.941 59.431 29.0622 59.5364 29.1096L62.1918 29.9631C62.2919 30.0105 62.4658 30.0105 62.5659 29.9684L65.2108 29.236C65.3161 29.1939 65.3636 29.0727 65.3161 28.9673L64.4363 26.9125C69.3941 26.0327 73.6828 22.8346 73.6828 22.8346C73.6828 22.8346 71.6649 22.7503 71.6965 22.7292C74.4573 21.1328 75.7956 16.3593 75.7956 16.3593H75.7903Z" fill="white"/>
</g>
<defs>
<clipPath id="clip0_28400_622">
<rect width="146.786" height="30" fill="white"/>
</clipPath>
</defs>
</svg>
