<svg version="1.2" xmlns="http://www.w3.org/2000/svg" viewBox="0 0 1550 512" width="1550" height="512"><style>.a{fill:#c1d72f}.b{fill:#313636}</style><path class="a" d="m288.3 32.6l-32.4-32.3-234 234-21.1 21.8 131.4 131.4 13.3-16.6 11.6-18.6 9.9-20.1 8.6-21.4 7.6-22.6 6.8-23.2 6.2-23.8 12-48.2 6.3-23.8 6.8-23.2 7.6-22.5 8.7-21.4 10-20 11.6-18.4 13.5-16.6zm94.5 94.5l-81.7-81.7-13.7 17.2-10.6 20.2-8.3 22.5-6.8 24.1-5.8 25-5.8 25.1-6.5 24.3-5.6 24.7-6 23.8-6.9 23.1-8.1 22.4-9.5 21.5-11.2 20.9-13.4 20.1-18 21.3-9.7 10.2-9 9.7 80.2 80.3 13-16.7 11.3-18.4 9.8-20 8.4-21.2 7.5-22.3 6.7-23 6.2-23.5 11.9-47.6 6.2-23.5 6.7-23 7.4-22.3 8.5-21.3 9.6-20 11.3-18.5 12.9-16.8 14.9-13.8zm128.7 128.8l-116.7-116.8-12.8 18.3-10.7 20.4-9 22.5-7.7 23.8-6.7 25.1-6.1 25.7-5.8 26.1-5.9 25.9-6.4 25.6-7.2 24.7-8.4 23.5-9.9 21.8-11.9 19.9-18.2 24.6-28.4 28.1 16.3 16.3z"/><path fill-rule="evenodd" class="b" d="m951.3 349.2l-2.2 12.8-12.6 29.8-12.2 14.9-17.3 13.5-23.3 10.9-30.3 7.3-37.9 2.7-24.6-1.1-22.9-3.5-21.2-5.9-19-8.3-16.5-11-14-13.5-11-16.2-7.9-18.9-4.4-21.7-0.8-24.6h34l1.9 25.1 6.5 20.8 10.6 16.6 14.3 12.9 17.3 9.4 20 6.3 22 3.6 23.7 1.1 20-1.8 21.1-5.4 20.1-9.6 17-13.8 11.7-18.4 4.4-23.4-4.4-21.5-11.9-16.4-17-12.1-19.8-8.6-20.3-5.8-79.3-19.5-20.5-6.1-19-8.5-16.4-11.4-13-15.2-8.5-19.8-3-24.8 1.1-14.4 11.3-32.8 11.4-16.1 16-14.5 21.4-11.8 27.5-7.9 34.1-2.9 25.8 1.8 24.5 5.3 22.4 8.7 19.7 12.3 16.5 15.6 12.4 19 7.8 22.4 2.6 25.7h-33.9l-4.4-24.9-10.5-20.5-15.6-15.9-19.6-11.4-22.7-6.9-24.5-2.3-22.7 1.6-21.1 5.1-18.3 9-14.5 13.4-9.4 18.3-3.3 23.6 4.3 21.6 11.8 15.5 17.1 10.5 20.6 6.7 86.9 21.5 24.4 7.6 21.9 9.7 18.8 12.8 14.6 16.4 9.3 21.1 3.4 26.3zm55.3-272v50.4h-31.5v-50.4zm-31.4 356.4l-0.1-257.6h31.5l0.1 257.6zm67.4 0l-0.1-356.4h31.5l0.1 356.4zm85.4-120.3l1.7 20.1 4.8 20.1 8.1 19 11.7 16.7 15.4 13.4 19.5 8.8 23.7 3.2 25.1-3.1 20.3-8.9 15.9-13.9 11.7-18.2 7.8-21.8h31.4l-7 23.5-9.8 20.4-12.6 17-5.8 5-9.8 8.5-19 9.9-22.3 6-25.9 2-25.5-2.2-22.2-6.5-18.9-10.2-15.6-13.7-12.6-16.6-9.6-19.1-6.7-21.1-3.9-22.8-1.4-24 1.4-22.6 3.9-22 6.7-20.9 9.6-19.3 12.6-17 15.6-14.3 18.9-10.8 22.1-7 25.5-2.4 25.8 2.5 22.2 7.4 18.8 11.5 15.1 14.9v82l-3-23.3-7.6-21.6-11.8-18.8-15.9-14.9-19.9-9.7-23.7-3.5-23.7 3.5-20 9.8-16.1 15-12.2 18.9-8.3 21.5-4.5 23.1h166.7v-82l0.3 0.2 12.2 18.1 9.1 20.5 6.1 22.2 2.9 21 0.3 2.4 0.5 24.1zm381.4 120.2l-81-108.3-79.2 108.3h-39l99.8-133.8-92.4-123.8h39.5l73.4 97.9 71.9-97.9h39.3l-92.8 123.3 100.4 134.3z"/></svg>