<svg width="31" height="30" viewBox="0 0 31 30" fill="none" xmlns="http://www.w3.org/2000/svg">
<path d="M14.1345 17.5471L22.9192 22.4647L23.2492 18.7242L20.8124 16.1279L17.2094 15.5338L14.1345 17.5471Z" fill="#FF4D00"/>
<path d="M15.6143 0.549561L22.9192 22.4644L30.2242 15.1595L15.6143 0.549561Z" fill="#FF7D00"/>
<path d="M14.4426 12.156L14.1345 17.5467L25.3615 15.1594L14.4426 12.156Z" fill="#001AFF"/>
<path d="M1.01001 15.1593L8.81003 22.9593L10.2622 21.0121L9.99818 18.6743L6.41721 16.353L1.01001 15.1593Z" fill="#E23400"/>
<path d="M14.8278 1.34155L1.01001 15.1594L9.99818 18.6743L14.8278 1.34155Z" fill="#FF4D00"/>
<path d="M9.99773 18.6747L8.80957 22.9597L15.614 29.7696L22.0168 23.3723L9.99773 18.6747Z" fill="#FF7D00"/>
</svg>
