<svg version="1.2" xmlns="http://www.w3.org/2000/svg" viewBox="0 0 1537 464" width="1537" height="464">
	<title>logo (19)-svg</title>
	<style>
		.s0 { fill: #f6921e } 
		.s1 { fill: #161616 } 
	</style>
	<path id="gold-text" fill-rule="evenodd" class="s0" d="m634.9 424c0-26.1 23.1-39.3 46.6-39.3 22.7 0 46.7 13.2 46.7 39.3 0 25.8-23.5 39.5-46.7 39.5-23.8 0-46.6-13.8-46.6-39.5zm80.8 0.4c0-15.3-15.3-27.7-34.3-27.7-19 0-34.3 12.4-34.3 27.7 0 15.4 15.3 27.8 34.3 27.8 19 0 34.3-12.4 34.3-27.8zm108.6-38.1h45.4c20.5 0 36.9 16.7 37 37.4 0 19.8-13 38.4-37 38.4h-45.4zm12.4 63.5h31.3c16.5 0 26.7-12.6 26.3-26.6-0.3-13.2-9.4-24.5-26.3-24.5h-31.3zm-219-37.1v32.5c-14.1 12-32.6 18.2-50.9 18.4-32.1 0.4-56.5-22.1-56.5-49.3 0-33.1 30-47.7 58.3-47.9 14.8-0.1 33.4 7.4 46 15l-7.7 10.6c-12.2-7.7-26.6-12.6-41.1-12.6-20.4 0-41.5 13.2-41.8 34.9-0.3 16.7 14.6 37.1 43.2 36.8 22.8-0.4 30.7-5.9 37.8-13.1v-13.8h-34v-11.5zm140.8 37.1h46.3v12.4h-58.6v-75.8h12.3z"/>
	<path id="black-text" fill-rule="evenodd" class="s1" d="m1187 386.3h12.4v75.8h-12.4v-21.5h-50.5v21.5h-12.3v-75.8h12.3v41.9h50.5zm247.8 0h71.1v12.4h-29.6v63.4h-12.4v-63.4h-29.1zm89.8 0h12.3v75.8h-12.3zm-267.3 0h15.7l40.2 75.8h-14l-11.4-21.6h-44.9l-11.3 21.6h-14zm7.9 11.7l-15.8 30.2h31.8zm-197.5 65.4c-26.2-0.6-41.3-13.6-41.3-13.6l7-10.3c23.2 17.8 60 13.7 59-1.6-0.6-9.6-17.3-8.8-24-9.1-5.9-0.2-11-0.6-15.5-1.5-14.9-2.9-23.3-11.1-22.7-21.3 0.9-16.8 19.3-21.9 34.7-21.2 13.2 0.6 25.1 3.9 36.7 10.1l-7.2 10.5c-20.7-12.7-50.7-11.8-50.9 0.8 0 3.8 2.5 7.4 9.2 8.9 9.5 2.1 16.3 1.7 26.1 2.5 17.4 1.2 25.8 8.3 26.4 19.3 1.1 19.9-21.4 26.8-37.5 26.5zm-109-95.8h10.2l45.9 94.6h-13.7l-10.5-21.6h-53.1l-10.1 21.6h-13.7zm5.2 18l-20.4 42.6h41zm439.7 0.7h12.3v75.8h-13.5l-58.6-57.2v57.2h-12.3v-75.8h12.4l59.7 58.6zm-1358.4-18.8h10.2l45.8 94.6h-13.7l-10.5-21.6h-52.8l-10.3 21.6h-13.7zm5.2 18l-20.3 42.6h41zm261.5 36.4v26.9c-11.4 9.7-26.1 14.8-41.1 14.9-25.8 0.3-45.5-17.8-45.5-39.8 0-26.9 24.3-38.6 46.9-38.7 12.3-0.1 27.1 6.1 37.5 12.4l-7 9.5c-9.8-6.2-21.1-9.5-32.8-9.5-16 0-32 9.6-32.3 26.3-0.3 12.9 11.1 27.8 33.4 27.5 17.8-0.3 24.8-5.3 28.5-9v-8.1h-26.1v-12.4zm32.3 27.7h46.3v12.4h-58.6v-75.8h12.3zm102.2-64.9c22.7 0 46.6 13.2 46.6 39.3 0 25.8-23.4 39.5-46.6 39.5-23.8 0-46.6-13.8-46.6-39.5 0-26.1 23.1-39.3 46.6-39.3zm34.3 39.6c0-15.4-15.3-27.8-34.4-27.8-19 0-34.3 12.4-34.3 27.8 0 15.3 15.3 27.7 34.3 27.7 19.1 0 34.4-12.4 34.4-27.7zm-287.8-38.2h12.3v75.9h-13.5l-58.6-57.3v57.3h-12.4v-75.9h12.5l59.6 58.6z"/>
	<path id="lion" fill-rule="evenodd" class="s1" d="m477.5 316.5c-2.6 1.9-6.9 3.1-6.8 3.3l-0.1 1c-0.4 0.1-0.9 0.2-1.7 0.2-0.6 0.1-1.4-0.1-1.5-1.5-0.2-0.6 0.2-1.1 0.7-1.6 1.4-1.3 2.9-2.9 4-4.6 0.6-0.9 2.8-4.7 2.5-8.2 0-1-1-2.5-0.5-4 0.3-0.9 5.1 1.9 6.8 6 1.9 4.7-3.4 9.4-3.4 9.4zm-20.5-220.1c1.3 0.1-2.5 3.5-3.3 5.2-2.2 3.1-4.9 3.8-8.5 6.5-0.7 0.7-1.7 1.7-1.2 3.8 0.2 0.5-1.1 2.1-1.6 2.4-1.2 0.6-6.4-1.9-7.5-3.3-3-3.9-4.7-4.9-6.9-7q-1.9-2-2.3-4.8l0.4-0.4 2.7 1.3 8.1 1.5c2.8 0.4 9.1-0.3 11.4-1.6zm-5.5-66.1c-3.7-1.8-3.5-5.8-3.7-9.3-0.1-4.2 0.6-8.7 3.1-12.1 4.1-5.4 7.9-8.7 14.7-8.1 3.7 0.3 6.8-0.1 10.1 2 3.6 2.2 6.2 5.6 8.8 8.9 5.3 6.5 12.7 10.5 20 14.4 11.7 6.3 20.3 15.8 28 26.5 8.4 11.6 14.2 27.4 9.9 41.7l-0.9 2.5c-1.8 5.9-7.8 12.8-12.7 16.4l-2.2 1.6c-13 9.2-10.4 21.3-10.7 35.1-2.3 12.7-10.9 23.4-21.3 30.5-7.2 5.1-25.5 15.4-33.5 8.3-0.7-0.6 6-2.7 9.6-6.7 3.5-3.9 6.4-9.5 8-14.4 1.7-5.6 2.1-11.5 1.9-17.3-0.1-5.8-0.8-11.5-2.1-17.1-0.8-4-1.6-8.3-0.5-12.4 0.9-3.3 2.5-6.5 3.7-9.7l0.5-1.1 6.7-11.5 2.5-5c3.1-5.9 2.5-12.4 0.9-18.7l-1.4-4.8-1.9-4.7-2.4-4.4c-1.1-2.2 0.5-3.4 2.3-6.4 0.5-0.6 1.2 0 2-0.7 3-2.6 6.8-11.5-3.1-19.4-0.8-0.7-4.1-1.4-5.9 0.8-0.4 0.5-4.5 10.5-10.3 5.2-6.1-5.4-13-6.8-20.1-10.1zm13.9 279.8c-0.1 1.7-0.6 3.1-1.4 4.6-1.5 2.9-5.6 7.8-10.8 7.8l-1.2-0.3-1-0.2c-0.8-0.1-1.5-0.3-2.1-0.6-4.6-1.9-6.7-6-9.5-9.8-4-5.5-5.1-11.9-2.2-18.1 1.4-3 2-6.7 2.5-10 0-0.1-0.4 0-1.3 0l-8.5-0.5c-15.1-0.3-26.8 0.3-41 1.8-1 0.1-2.1 0-3.2 0.3 0.1 2.7-1.3 4.5-4.1 5-2.7 0.4-5.5 0.8-8.4 0.8-3.6 0-6-0.6-10.9-1.9q-1.6-0.4-0.2-0.8c2.3-0.8 2.7-1.3 4.2-3.5 1.2-1.8 1.1-3.8 1.4-6 0.3-1.8 1-3.1 3.1-2.9 0.7 0.1 1.4 1.2 1.8 1.9 0.4 0.7 0.7 1.5 1.2 2.1 1.1 1.2 1.5-1.6 1.5-2.1 0.3-2.1-0.5-4.4-1.1-6.4l-0.8-1.6c-1-1.3-1.9-2.7-2.8-4-1.2-1.8-2.6-3.5-3.8-5.3-2.2-3.6-3.8-7.2-3.9-11.6 0-2.4 1.1-3.8 2.1-5.9 0.5-1.1 1.1-2.1 1.7-3.2l3.9-7.6 7.8-15.7 0.6-1.7c1.2-3.2 0.1-6.9 0.5-10.2 0.4-3 1.3-5.9 2.5-8.6 2.4-5.5 6.3-10.4 12-12.6 3.4-1.3 7.2-0.5 10.5-2.3 2.7-1.4 4.1-3.7 4.8-6.5 1.8-6.7 1.6-13.9 3.3-20.7 1-4.3 1.9-8.9 3.5-13q0.9-0.1 1.8 3.4 2.2 7.1 2.2 14.9l-2.6 18.8-0.6 7.6-0.1 7.8 0.2 7.6c0.7 10.3 2 21.3 6.1 30.9l2.9 6.8c3.9 8.6 9.9 17.6 16 24.7l2.9 3.1q2-0.2 2.9-2.4c0.9-7.9 6.1-13.4 7.6-21.1 1.5-7.3 1-15.8-0.8-22.9l-0.5-1.9-0.3-1.7-0.1-0.9v-1.3l0.5-1.3c2.8-1.5 8.6 25.9 8.9 27.7 1.3 11.9-0.4 23.7-5.5 34.5l-3.1 6.9-3.1 6.9c-1.9 5.3-6 11.7-4.8 17.5 1.5 6.9 4.9 12.1 8.4 11 3.3-1.1 3.5-4.8 2.7-7.6-0.5-1.9-1.8-3.6-2.2-5.6-0.1-0.4 0-4.1 0.8-3.9 0.6 0.1 1.2 0.3 1.7 0.5 1.1 0.4 2 0.8 2.8 1.5 0.8 0.7 1.5 1.3 2.3 2.2 0.6 0.7 1 1.5 1.5 2.4l0.1 0.2c0.5 1 0.8 1.9 0.7 3zm-33.1-48.1l-1.8-1.7c-13.4-12.2-20.5-24.8-24.4-42.2l-1.2-5.6c-0.4-1.9-0.7-3.8-0.8-5.7q0.1-3.9-0.7-5.5-7.2 0.6-9.8 1.7c-1.1 0.5-1.9 1.2-2.4 2.3-1.2 2.4 1.6 6.3 0.6 13-0.5 3.2-1.7 5.7-3.4 9.8l-2 4.3c-0.5 0.7-0.9 1.4-1.3 2.2-1.9 3.8-4.5 7.4-7.4 10.5-2.2 2.4-6.8 5.2-6.1 8.8l0.6 2.5 0.7 2.3 1.1 2.4 1.2 2.1 1.6 2.2 0.7 0.7 1.5-0.2 3.8-0.7c10.7-2.2 15.7-2.4 24.2-3.3 8.3-0.9 18-1.4 25.3 0.1zm-93.3 3c4.7 5.8 5.4 14.7 4.7 19.2-0.4 3-4.3 9.1-5.2 9.1-1.8-0.2-3.9-1.1-6.1-2.5-1.5 0.1-20.9 2.1-28.1 6.9-2.3 1.5-3.8 4.3-6.1 5.4-2.5 1.3-5.6 0.8-8.3 1.1-2.8 0.3-5.7 1.2-8.4 1.9-6.6 1.5-13.3 3.1-19.8 4.8-11.2 2.9-23 5.6-33.8 10.1l-6 2.5-4.4 1.2-4.3 1.3-8.5 2.5-4.4 1.1-4.3 1.1c-8.3 2.1-16.4 3.2-25 3.5-4.1 0.1-5.8-0.7-9.1-3.2-4.6-3.6-6.2-4.5-12.2-4.8-4-0.2-7.6-1-11.5-1.8-4.7-0.9-9.5 1.2-14.3 1.1-2.7-0.7-3.3-1.5-3.2-2.6 8.8-7.3 18.5-9.4 29.4-12.4 10-2.8 20.2-5.3 30.3-7.9 9.6-2.5 19.4-5 29.1-7.4 9.8-2.4 19.6-4.9 29.5-6.7 6.6-1.1 12.8-2.5 19.3-4 4.5-0.9 8-1.1 12.4-1.1 3.8 0 6.2-2.5 9.8-3.1 2-0.3 4.1-0.3 6-0.6 8.4-1.2 16.8-3.2 25.1-4.7 5.2-0.9 10.4-1.8 15.7-2.5 4-3.9 7.3-12.3 10.7-13.4 2-0.6 3.7-0.2 4.2 0.8 0.8 1.7-3.2 2.9-3.2 5.1zm103.9-247l-0.7-0.3c-2.2-0.9-5.6 1.7-6.8 3.3-2.4 3.2-4.1 6.8-6.6 9.9l-1.6 1.8-1.8 1.9-1.9 2-1.9 2.9-2.9 4.3-3.5 5.8c-1.8 3.2-3.9 6.8-3.8 10.5 0.1 1.2 0.1 2.6 0.4 3.8 0.3 0.9 0.5 1.8 0.8 2.7l0.7 1.6 1.8 3.4c0.7 2 1.4 3.8 1.6 5.5 2.5 13.3-5.5 20.6 4.3 34.1 4.6 6.3 9.3 12.5 13.2 19.2 2.2 3.5 4 7.2 5.8 10.9 1.6 3.2 3.3 6.5 4 10.1 1 4.5 0.8 10.4-1 14.7-1.4 3.3-1.1 6.9-2.8 10.1-0.7 1.2-2.7 1.2-3.4 0.1-0.6-1-0.5-2.5-0.2-3.7 0.7-2.9 2.2-4.9 2-8.2-0.8-8.7-8.2-16.4-13.8-22.3-5.5-6-11.5-11.2-15.8-18.2-2.5-4.1-4.1-8.9-4.7-13.7-3.2 3.4-9.3 8-17.8 12.8l-2.4 1.7c-11.6 10.3-18.3 25-21.6 39.9l-0.7 3.9c-1.5 8.4-1.6 18.4-4.4 26.5-1.9 5.4-5.3 8.1-8.5 12.6-7.5 10.5-14.6 21.4-28.5 23.7-12.6 2.1-25.2-1-29.3-14.5l-0.4-1.3c-1.6-5.1-0.9-9.8 2.1-14.3 1.1-1.7 3.2-4.3 4.8-5.5 3.2-2.3 7.8-2.7 9.1-2.4 1 0.2 1.8 0.5 2.6 1.2l1 1.6c1.8 1 4.1-0.1 5.1 2.3 2.1 5.2-7.3 11-7.3 11-2.3 1.7-7.6 2.7-8.6 4-2.6 3.8 2.2 9.9 5.4 11.1 4.3 1.5 9.8 0.3 13.9-1.1 14.4-4.8 22.1-16.4 23.3-31.1l0.8-6 0.6-5.8 0.8-11.6 0.1-5.8c0-5.8-0.1-11.6 1.5-17.3 1.2-3.8 2.4-7.3 4.2-10.9 1.2-2.6 3-5 4.5-7.5l2.4-3.2 2.6-2.9 2.9-2.6 4.6-3.5 2.4-1.5 2.6-1.2c6.6-3.2 29.8-8.1 29.3-12.1-0.7-6.3-1.5-12.6-5.3-18-1.6-2.3-3.8-4.2-5.5-6.4-4.2-5.7-6.7-11.6-5.3-18.8 0.7-3 1.7-5.2 3.5-7.7l1.1-1.5c7.9-8 17.8-13.4 25.8-21.2l3.6-2.9c4.6-4 9.5-9.9 15.8-10.9 2.9-0.5 7.5 0.3 8.8 3.4v1q-0.2 0.8-1 0.6zm-10.9 29.6c1 1.2-6.3 10.2-6.3 11.5l-1.2 0.5c-0.8-2 0.8-5.2 0.4-5.8-0.9-1.1-2.5-0.1-2.6-1.7-0.9-1-2.1-1.4-1.9-2.8 0.4-2.7 9.2-4.6 11.6-1.7zm34.9 1.1c0 0 0.3 0.2-0.2 1.5-0.1 0.3-0.3 0.6-0.7 1.3-1.2 1.9-7.4 6.6-12.6 4.6-1.7-0.6-3.3 4-6.6 3.8-1.4-0.2 0.3-2.5 1-3.6 1.6-2.5 2.3-5.1 3.8-7.2 0.5-0.8 1.1-0.9 1.7-1 2.7-0.1 5.1-0.3 8.3 0.6l1.2 0.4c0.8 0.1 1-0.4 1.4-0.6 0.9-0.6 2-1.1 2.7 0.2zm-28.5 15.4c2.7 2.5 6.9-2.1 7.2 1 0.2 1.2-2.3 2.3-3.1 2.8-2.6 1.5-3.8 1.4-3.8 1.4-1.1 0.5-2 1.5-3.2 1.8-2.4 1.6-2.1 4.9-2.7 6.7 0 1.9 2.6 2.4 3.9 3.5 2.5 1.8 4.7 7.2 8.7 6.3 0.7-0.2 1.4-0.2 2.1-0.3l1.6-0.4c1-0.2 2-0.4 2.9-0.4h1.1l0.8 0.1c0.4 0.2 0.1 0.7 0.7 0.7 1.9-0.1 4.3 1.9 2.1 3.5-0.6 0.4-1.2 0.8-2 0.9-1.3 0.2-2.5 1-3.9 1.2-1.4 0.2-2.6 0-4-0.3-1-0.2-1.9 0.1-2.9-0.2-1-0.3-1.8-0.8-2.7-1.4-1.5-1.1-3.3-2.2-4.7-3.5-1-0.8-3.1-2.4-4.5-2.3-1.1 0.2-2.4 1-3.3 1.5-0.9 0.5-1.7 1.2-2.5 1.9-0.9 0.8-2.6 2.3-3.7 1.4-0.5-0.7 1.1-4.3 4.5-7.8 0.8-0.9 3.3-1.4 3.3-4.1-0.2-1.9-2.2-6.2-2.4-6.7-1.1-0.7-0.8-1.5-1.6-2.3-5.4-3.9-4.2-5.4-3-5.8 3-0.2 9.3-2.5 14.6 0.4zm-86.7 209.8c0.2-1.1 0.9-2.4 2.1-2.6 2.6-0.2 2.9 4.3 3.4 6 0.4 1.5 1.5 2.8 1.7 4.5 0.2 1.5 0.1 3.4-0.6 4.8-0.3 0.6-0.9 0.8-1.6 0.8-0.9 0.1-1.8 0.1-2.6 0.2-0.9 0.1-1.8 0.1-2.6 0.4-0.9 0.5-1.8 1-2.7 1.2-0.3 0.1-2.6 0.2-1.6-0.5 0.7-0.5 1.2-1.1 1.8-1.7 0.4-0.4 2.3-2.5 2.8-3.3 0.9-1.5 1.3-3.7 1.1-5.5-0.1-0.7-0.7-1.5-0.9-2.2-0.2-0.6-0.3-1.2-0.3-1.9 0 0 0-0.2 0-0.2zm142.9 7.9l0.1 1.4 0.4 2.7c0.2 0.8 0.4 1.5 0.6 2.3 0 0.2 1.6 4.1 2.3 5.5 0.9 1.9 1.7 3.9 2.1 6 0.9 4.1 0.5 7.6-1.6 11.2l-1.1 1.3c-2.7 2.6-5.8 5.1-9.3 6.6q-2.9 1.3-6 1.9c-0.8 0.1-2.2-3.3-1.3-3.8 1.6-1 2.9-2.1 3.9-3.1 1.4-1.7 3.6-3.5 4.4-5.6 0.9-2.2 0.8-4.4 0.5-6.8-0.2-2.8-1.1-5.6-1.4-8.4-0.9-7.3-1.1-14.5-0.8-21.8 0-9.4 5.1-17.8 8.3-26.3 3.1-8 7.6-15.3 10.9-23.1 4-9.4 6.4-19.4 7.3-29.6 0.9-9.5-1.4-20.4 1.8-29.5 0.9-2.5 3.3-4.9 3.5-7.5 0.6-0.2 1.1 0 1.6 0.6l0.5 1.6c0.4 3-1.2 6.5-1.3 9.6-0.1 3.8 0.3 7.4 0.3 11.1 0 5.9 1 11.9 1.5 17.8 0.8 9.5 1.3 19-0.8 28.4-2 9-6.1 18.1-11.3 25.8-1.4 2.1-2.8 4.1-4.2 6.2l-1.7 2.8 8.3 0.1 22 2h3.7l3.5 0.1c3.9 0.1 8.1-0.1 11.9 0.9 1.1 0.3 2.1 1.1 3.2 1.1 3.6 0.1 7-2.4 10.7-1.4 5.2 1.5 10.8 2 16.2 2.8 9.6 1.3 39.1 2 43.5 3.5 1 0.4 58.7 7.7 66.5 9.5 10 2.3 19 5.5 28.6 8.3 1.6 0.5 3.4 0.9 5.1 1.2 1.4 0.2 6.2 1.8 7.2 2.6 1.2 1 4.6 0.8 6 0.8 0.6 0 2 0.1 2.4 0.6 0.7 0.7 1.8 2.2 3.9 3.1 2.2 0.8 5.6 1.4 5.5 2.6-0.1 0.3-3.2-0.2-5.2-0.7-5-1.2-9.9-2.4-14.9-3.6-6-1.5-12.1-3-18.1-4.5-5.5-1.4-11-2.8-16.4-4-2.4-0.5-4.8-1.4-7.2-1.8-2.3-0.3-4.7 0.2-6.9-0.5-2.3-0.7-3.1-1.7-5.9-1.3-1.6 0.2-2.5 0.5-4 0.1-2.3-0.6-4-1.7-6.3-2.1-2.2-0.3-4.5 0-6.7-0.4-2.9-0.4-5.8-0.8-8.7-1.3-4.4-0.7-9.1-2.3-13.5-2.4-1.3-0.1-9.8-1.5-11.6-1.4-2.2 0-4.3 0.2-6.4-0.1-1.3-0.1-4.9-0.4-5.7-0.3-2.7 0.4-5.4 0.4-8.1 0.5-4 0.2-9 0.9-12.8-0.3-1-0.4-1.5-0.8-2.6-1-1.1-0.2-2.6 0-3.5 0.7 7.3 4.8 18.7 4 27.2 4.7l9.4 0.8c23.9 3.1 48.3 4.6 71.5 11.4l14.2 3.9c2.1 0.6 4.2 1.1 6.3 1.8q7.7 2.2 15.4 4.4c6.7 1.9 13.3 3.8 20 5.7 6.5 1.9 13.1 3.8 19.7 5.6 5.3 1.5 22.6 8.7 26.6 10.3 1.7 0.7 3.5 1.4 5.1 2.2l1.7 1.1c-2.8 0.7-5.3 0.8-7.3 0.5-2.6-0.2-5.8-0.8-9.7-1.6-1.1-0.2-2.2-1.1-3.3-1.6-2.5-1.1-17.8-6.1-20.4-6.2-4.3-0.1-8.3-1-12.5-1.9-2.5-0.5-5-1.1-7.4-1.6q-3.4-0.8-6.7-1.8c-0.9-0.3-1.7-0.7-2.6-1-1-0.4-1.8-1.2-2.7-1.5-1.5-0.5-3.3-0.4-4.9-0.8-1.8-0.5-2.6-1.8-4.3-2.5-4-1.9-8.2 0.2-12.4 0.5-4.6 0.2-21.9-1.7-25.2-2.8-1.8-0.7-1.5-2.2-3.7-2.4-2.1-0.2-3.8 1.3-6.1 1.1-3.1-0.1-6-1.1-9-2.2l-4.3-1.3c-14.6-4.4-29.8-6.3-44.9-8.1l-7-0.8c-3.1-0.3-6.8-0.4-10.2-0.4-4.1 0-7.9-1.5-11.8-2.5-1.4-0.4-6-2.3-7.6-1.4q-0.6 0.6-1.9 0.9c-2.5 0.7-5.1-0.5-7.5-1.1-1.2-0.3-2.3-0.8-3.5-0.9-0.6-0.1-1.1 0-1.6 0.3-0.6 0.4-1 1.1-1.5 1.4-0.6 0.3-1.3 0.6-1.9 0.8-1.7 0.7-3.5 0.4-5.2 0.2-1.8-0.2-3.7-0.4-5.5-0.5-3-0.2-5.9-0.5-8.8-0.7q-8.1-0.7-16.3-1.2-7.1-0.4-14.1-0.6c-3.8-0.1-7.6-0.2-11.5-0.4-2.2-0.3-4.4-0.4-6.7-0.5zm9.2-22.7z"/>
</svg>