<?xml version="1.0" encoding="UTF-8"?> <svg xmlns="http://www.w3.org/2000/svg" xmlns:xlink="http://www.w3.org/1999/xlink" width="281" height="64" viewBox="0 0 281 64"><defs><clipPath id="a"><rect width="281" height="64" fill="none"></rect></clipPath></defs><g transform="translate(0 0)"><path d="M29.326,58.419,12.479,61.691,34.618,43.326Z" transform="translate(-0.914 -3.161)" fill="#95161c"></path><path d="M30.658,58.419l12.033,8.354L35.95,43.326Z" transform="translate(-2.246 -3.161)" fill="#b41f1d"></path><path d="M0,53.392l11.565,8.3L33.7,43.325Z" transform="translate(0 -3.161)" fill="#e12a20"></path><path d="M43.109,66.773l13.521-3.335L36.369,43.326Z" transform="translate(-2.664 -3.161)" fill="#95161c"></path><path d="M56.63,63.438,36.368,43.326l33.85,10.016Z" transform="translate(-2.664 -3.161)" fill="#b41f1d"></path><path d="M33.7,0,0,50.231,33.7,40.165Z" transform="translate(0 0)" fill="#b41f1d"></path><path d="M36.369,0V40.164L70.219,50.18Z" transform="translate(-2.664 0)" fill="#791317"></path><path d="M104.257,5.174l11.651,29.205H110.48l-2.631-6.56H93.6l-2.631,6.56H85.5L97.2,5.174ZM95.568,22.932h10.317l-5.18-12.912Z" transform="translate(-6.263 -0.378)" fill="#b41f1d"></path><path d="M118.358,5.173h25.814v5.013H133.938V34.379h-5.347V10.187H118.358Z" transform="translate(-8.669 -0.377)" fill="#b41f1d"></path><path d="M165.011,5.174l11.653,29.205h-5.43L168.6,27.82H154.36l-2.633,6.56h-5.47L157.952,5.174Zm-8.688,17.758h10.317L161.46,10.021Z" transform="translate(-10.713 -0.378)" fill="#b41f1d"></path><path d="M189.323,29.323h15.119v5.055H183.935V5.173h5.388Z" transform="translate(-13.472 -0.377)" fill="#b41f1d"></path><path d="M226.891,5.174l11.654,29.205h-5.43l-2.632-6.56H216.241l-2.632,6.56h-5.472l11.7-29.205ZM218.2,22.932H228.52l-5.18-12.912Z" transform="translate(-15.245 -0.378)" fill="#b41f1d"></path><path d="M262.881,5.173h6.139l-11.9,17.591V34.379H251.73V22.764L239.866,5.173h6.141l8.437,12.494Z" transform="translate(-17.569 -0.377)" fill="#b41f1d"></path><path d="M285.358,10.02l5.18,12.912H280.221ZM281.85,5.173,270.155,34.379h5.472l2.631-6.56H292.5l2.63,6.56h5.429L288.91,5.173Z" transform="translate(-19.788 -0.377)" fill="#b41f1d"></path><path d="M103.912,47.011v16.96h-3.1V52.834l-5.239,7.327H93.75l-5.239-7.327V63.971h-3.13V47.011H87.83l6.816,9.559,6.841-9.559Z" transform="translate(-6.254 -3.43)" fill="#791317"></path><rect width="3.129" height="16.96" transform="translate(103.723 43.581)" fill="#791317"></rect><path d="M137.24,47.011v16.96h-2.279L124.943,52.323V63.971h-3.13V47.011h2.281l10.018,11.621V47.011Z" transform="translate(-8.922 -3.43)" fill="#791317"></path><rect width="3.129" height="16.96" transform="translate(134.358 43.581)" fill="#791317"></rect><path d="M170.3,47.011v16.96h-2.281L158,52.323V63.971h-3.128V47.011h2.278l10.019,11.621V47.011Z" transform="translate(-11.343 -3.43)" fill="#791317"></path><g transform="translate(0 0)"><g clip-path="url(#a)"><path d="M185.944,54.447h7.836a7.562,7.562,0,0,1,.049.995,9.019,9.019,0,0,1-2.233,6.237,7.975,7.975,0,0,1-6.234,2.716,8.94,8.94,0,0,1-6.307-15.262,8.6,8.6,0,0,1,6.307-2.62,8.979,8.979,0,0,1,7.23,3.664l-2.571,1.8a5.97,5.97,0,0,0-2.05-1.722,5.812,5.812,0,1,0-2.609,11.016,4.964,4.964,0,0,0,3.287-1.081,5.47,5.47,0,0,0,1.783-2.778h-4.488Z" transform="translate(-12.923 -3.393)" fill="#791317"></path></g></g></g></svg> 