<svg version="1.2" xmlns="http://www.w3.org/2000/svg" viewBox="0 0 1550 442" width="1550" height="442"><defs><linearGradient id="P" gradientUnits="userSpaceOnUse"/><linearGradient id="g1" x2="1" href="#P" gradientTransform="matrix(-80.114,-2294.208,4813.168,-168.077,279.74,1423.993)"><stop stop-color="#ff7026"/><stop offset=".34" stop-color="#ff7727"/><stop offset=".5" stop-color="#ff962c"/><stop offset=".86" stop-color="#ffe53c"/><stop offset="1" stop-color="#ffeb3d"/></linearGradient></defs><style>.a{fill:#73c552}.b{fill:#1b68b8}.c{fill:#43454b}.d{fill:url(#g1)}</style><path fill-rule="evenodd" class="a" d="m340 224.9l-82.8 75.3v-30.5l73.4-66.4c35-34.5 54.7-30.5 87.7-4l59.1 52.2v56.1c-31.5-27.5-62.1-56.1-92.6-84.1-18.2-16.8-23.2-18.3-44.8 1.4z"/><path fill-rule="evenodd" class="b" d="m449.8 201.3l-149.3-126.5c-34.9-29.5-37.4-30.5-76.3 4.4l-224.2 204.3v-103.4l161.1-143.2c67-58.6 108.4-39.9 161.6 9.8l127.1 110.3z"/><path fill-rule="evenodd" class="c" d="m1206.1 247.1q3-11.1 5.9-22.2l5.5-20.2c4.9-16.7 4.4-23.6-15.3-23.6h-75.9l-0.5 2.5-7.4 26.1c-4.4 17.2-2.9 17.7 19.2 17.7h65.1l-4.5 16.7h-90.6c-32.5 0-37-2.4-29.1-32l20.2-71.3 0.5-3h-38.4l2.4-17.2h233.6c-2 13.8-6.4 17.2-22.7 17.2h-136l-0.5 2-5.9 21.1-0.5 3.5h88.7c42.9 0 45.3 8.8 37 40.3l-17.8 64-0.9 3h109.8c18.3 0 20.2 0 21.7-19.7l1.5-26.6h38.9l-1.5 32c-1.5 27.1-4.4 31-33.5 31h-409.4l17.2-16.7h216.3l0.5-2.5zm199.1-50.2h-43.9l-1 2.5-18.2 63h-40.9l19.7-62 1-3.5h-17.7l2.4-16.7h116.8c-2 15.2-4.9 16.7-18.2 16.7z"/><path fill-rule="evenodd" class="c" d="m1438.7 136.3l-2.5 16.8h16.8l-0.5 2.9-32.5 132.9h40.4l32.5-133.4 0.5-2.4c13.3 0 17.7 0.5 17.2 14.2-1.5 34-12.8 92.6-23.6 121.6h40.9c9.3-28 18.7-83.2 21.6-117.6 2-30-12.8-35-37.9-35h-14.3l0.5-3.4 3.9-15.8h-39.9l-3.9 16.8-0.5 2.4zm-606 50.7h59.6l-5.9 4.5-42.4 34.9c-8.4 6.9-11.8 17.2 2.5 17.2h94.1l-4.9 5-11.4 10.3c-14.8 13.8-15.7 13.3-39.9 13.3h-136l-2.4 16.7h178.3c24.7 0 26.6-1 43.4-17.7l86.7-87.1h-49.3l-45.3 41.8-1 1h-60.6l5.4-4.9 102.5-85.2h-52.7l-39.4 32.5-1 0.5h-43.4l5.5-4.4 54.6-48.8h-46.8l-52.2 50.2c-7.9 7.4-12.8 20.2 2 20.2z"/><path fill-rule="evenodd" class="c" d="m738.1 288.4h38.4c-20.7-33.4-36-52.6 1.5-91.5h-39c-30.5 38.4-20.6 56.1-0.9 91.5zm-31.6-164.4l1-6.4h-39.4l-1 6.4v3h-63.1c-31 0-40.4 0.5-43.3 22.1l-1 7.9h38.9c2-12.8 6.4-13.3 23.7-13.3h122.2c13.3 0 12.3 2 10.8 13.3h38.9l1-6.9c2.5-16.7-2-23.1-29.1-23.1h-60.1z"/><path fill-rule="evenodd" class="c" d="m766.1 184.6h-75.3c15.2 27 7.4 64-5.5 95.5-5.4 12.8-30 9.8-44.3 9.8 5.4-6.4 9.9-16.2 11.3-22.6l-4.9 1.4-101 20.2 2.5-16.7 103.4-21.2 5.9-1c2-6.9 2.5-11.8 2.5-16.7l-6.9 1.5-102.5 20.6 2.5-16.7 103.5-21.2 3.4-0.9c0.5-5 0-10.9-1.5-14.8l-4.9 1-98.5 19.2 2.4-17.3 78.4-14.7 29-5.4h-101l2-16.8h217.8c-3 10.9-4 16.8-18.3 16.8zm717.9 136.8h38.4l-0.9 7.4h-31.1l-0.5 1.5-0.5 4.9-0.5 2h30.1l-1 6.8h-30.1v2l-0.9 4.9v2h31l-1 7.4h-38.4zm-45.3 38.4l-14.8-38.4h8.8l8.9 24.6q0.5 1.5 1 3 0.5 1.4 1 2.4l1 4 1.9-4q0.5-1 1.5-2.4 1-1.5 2-3l16.3-24.6h8.3l-25.6 38.4zm-33.5-38.4h7.4l-5.4 38.4h-7.4zm-28.1 7.4v1.9l-4.4 29.6h-7.4l4.4-29.6v-1.9h-14.8l1.5-7.4h36.5l-1 7.4zm-40.4 29.5q-2 1-3 1.5-1.5 0.5-2.9 0.5h-25.2q-2.4 0-3.9-1-2-1-3.5-2.5-1.4-1.5-1.9-3.4-0.5-2 0-4.5l1.9-16.2q0.5-2.5 1.5-4.4 1-2 3-3.5 2-1.4 3.9-2.4 2-1 4.5-1h25.1q2 0 2.9 0.5 1.5 0.5 2.5 1 1.5 0.5 2.5 1.9 0 0.5 0.5 1l-6.9 4.4q-1-1.4-2.5-1.4h-25.1q-0.5 0-1.5 0.5-1 0-1.5 0.9-0.5 0.5-1 1-0.5 1-0.5 1.5l-1.9 16.2q-0.5 1.5 0.5 2.5 0.5 1 0.9 1 1 0.5 1.5 0.5h25.2q1.4 0 2.9-1.5 0.5 0 1.5-1l4.4 4.9q-0.5 1-1 1.5-1.4 1-2.9 1.5zm-64.6-6.4v-1h-24.6l-0.5 1-4.9 8.4h-8.9l25.6-38.9h10.4l14.8 38.9h-8.9zm-6.4-16.8q-0.5-1.4-1-2.9 0-1-0.5-2.5l-1-4.4-1.9 4.4q-1 2-3 4.5-1.5 2.9-4.4 6.8l-1.5 2.5h16.7l-0.9-2.5-1.5-3.4zm-43.4 8.9q-2 1.9-3.9 2.4-2 1-4.5 1l-3.4 0.5 2 2.5 8.3 9.3h-10.8l-9.9-11.8-0.4-0.5h-12.9v2l-1.4 10.3h-7.4l5.4-38.4h34.5q4.4 0 6.9 3 1.5 1.9 1.9 3.9 0.5 2 0 4.4l-0.4 4q-0.5 1.9-1.5 3.9-1 2-2.5 3.5zm-3.4-14.3q-0.5-0.5-1.5-1-0.5 0-1.5 0h-26.1l-0.5 1.5-1 8.3v2h26.1q1 0 1.5-0.5 1 0 1.5-0.5 0.5-1 1-1.5 0.5-0.4 0.5-1.4l0.5-4q0.5-1.9-0.5-2.9zm-85.8-8.4h38.5l-1 7.4h-31.1l-0.5 1.5-0.4 4.9-0.5 1.5h30l-1 7.4h-30v1.4l-1 5.4v1.5h31l-1 7.4h-38.4zm-28.1 7.4v2l-4.4 29.5h-7.4l4.4-29.5v-2h-14.7l1.4-7.4h36.5l-1 7.4zm-66 7.9q-0.5-0.5-1-1.5-0.5-1-1-1.5l-2.4-4.4-1 4.9-3.5 26.1h-7.4l5.5-38.9h8.8l19.2 24.6q0.5 0.5 1 1.5 0.5 0.5 1 1.5l2.5 3.9 0.5-4.9 3.9-26.6h7.4l-5.4 38.9h-10.4zm-72.4 22.6q-2.5 1-4.4 1h-36l5.4-38.9h36q2.5 0 3.9 1 2 0.5 3.5 2.5 2.9 3.4 1.9 7.9l-1.9 16.2q-1 4.4-4.5 7.9-1.9 1.5-3.9 2.4zm3-28q0-0.5-0.5-1.5-0.5-0.5-1-0.5-1-0.5-1.5-0.5h-28.6l-0.5 1.5-2.9 20.7v1.9h28.6q0.4 0 1.4-0.5 0.5-0.4 1.5-0.9 0.5-0.5 1-1 0.5-1 0.5-1.5l2-16.2q0.5-1 0-1.5zm-84.8 5.4q-0.5-1-1-1.5-0.5-1-1-2l-2.4-4.4-0.5 5.4-4 26.1h-7.3l5.4-38.9h8.8l19.3 24.2q0.5 0.9 0.9 1.4 0.5 1 1 2l2.5 3.9 0.5-4.9 3.9-26.6h7.4l-5.4 38.9h-10.3zm-38.5 15.3v-1h-24.6l-0.5 1-4.9 7.9h-8.9l25.6-38.4h10.4l14.7 38.4h-8.8zm-6.4-16.3q-0.5-1.5-1-2.9 0-1.5-0.5-3l-1-3.9-2 3.9q-0.9 2-2.9 4.9-1.5 3-4.5 6.9l-1.4 2h16.7l-1-2-1.4-3.4zm-74.4-14.3h7.4l-4 30-0.5 1.5h30.6l-1 7.4h-38zm-50.2 0h38.4l-1 7.4h-31l-0.5 1.4-0.5 5-0.5 1.9h30.1l-1 6.9h-30.1v2l-1 4.9v2h31.1l-1 7.4h-38.4zm-22.7 19.2l1.5-8.4-4.5 7.9q-0.9 1.9-2.9 4.9-2 2.9-4.4 6.9l-3 4.4-2 3.5h-8.8l-3-7.9q-1.5-4.4-2.5-6.9-0.9-3-1.4-4.9l-2-7.9-1 8.4-3 19.2h-6.8l5.4-38.4h8.3l7.9 23.1q0.5 1 1 3 0.5 1.4 1 3.9l1 3.9 2.4-3.9q0-1 1.5-2.5 1-1.9 2.5-4.4l14.3-23.1h8.4l-5.5 38.4h-6.9zm-59.6 16.2q-1.9 1.5-3.9 2.5-2 0.5-4.5 1h-24.6q-2.5-0.5-4.4-1-1.5-1-3-2.5-2.9-3.4-2.4-7.9l2.4-16.2q0.5-4.9 4.5-7.9 1.9-2 3.9-2.5 2-0.9 4.4-0.9h24.7q2.4 0 4.4 0.9 2 0.5 3 2.5 1.4 1.5 1.9 3.5 1 1.9 0.5 4.4l-2.4 16.2q0 2-1.5 4-1 1.9-3 3.9zm-1.5-27.1q-0.4-0.5-0.9-0.5-0.5-0.5-1.5-0.5h-24.7q-0.9 0-1.4 0.5-1 0-1.5 0.5-0.5 0.5-1 1.5-0.5 0.5-0.5 1.5l-2.5 16.2q0 0.5 0.5 1.5 0 0.5 0.5 1 0.5 0.5 1 1 1 0 1.5 0c0.7 0 25.8 0 26.1 0q1-0.5 1.5-1 0.5-0.5 1-1 0.5-1 0.5-1.5l2.4-16.2q0-1.5-1-3zm376-8.3h7.4l-5.5 38.9h-7.8zm-436.1 24.1v-1.5h-24.6v1.5l-2 14.2h-7.4l5.4-38.3h7.4l-1.9 13.7-0.5 1.5h24.6l0.5-1.5 2-13.7h7.4l-5.5 38.3h-7.3z"/><path fill-rule="evenodd" class="b" d="m284.8 137.3v51.2h-40.9v-51.2z"/><path fill-rule="evenodd" class="c" d="m1427.8 122.5h-109.8l-2.5 16.8h91.2c15.7 0 19.2-2.5 21.1-16.8z"/><path class="d" d="m374.9 274.6c-38.9 160.5-251.2 164.4-307.4 0h-5.9c11.3 111.8 94.6 166.9 179.3 167.4h2.5c85.7-0.5 171.5-57.1 182.8-167.4z"/></svg>