<svg version="1.2" xmlns="http://www.w3.org/2000/svg" viewBox="0 0 1537 236" width="1537" height="236"><style>.a{fill:#0046ff}</style><path fill-rule="evenodd" class="a" d="m190.2 111.4v99.1c-22.5 15.8-46.8 24.7-78.4 24.7-60.1 0-111.7-47.1-111.7-117.1 0-70.5 52.5-117.3 111.7-117.3 30.9 0 53 9.3 74.6 23.6l-16.4 30.9c-16.9-11.7-37-18.9-56.5-18.9-48 0-74.9 36.6-74.9 81.7 0 48.4 33 82.7 74.6 82.7 18.1 0 30.2-3.4 42.5-10.8v-44.5l-49.1-0.1v-34zm202 120.1l-20.5-52h-83.2l-20.4 52h-37l97.1-230h5.1l96.8 230zm-62.1-158.5l-29.9 75.8h59.7zm322 162.8l-131.8-149.8v145.5h-35.9v-230l5.8-1.3 130 147.7v-143.4h35.9v230.4zm243.3 0l-131.8-149.8v145.5h-35.9v-230l5.7-1.3 130.2 147.7v-143.4h35.8v230.4zm75.7-4.3v-227h128.3v35.3h-92.5v59.5h83.6v34h-83.6v62.9h92.5v35.3zm286.2-191.7v191.7h-36v-191.7h-66.8v-35.3h169.4v35.3zm212.4 0v191.7h-35.8v-191.7h-67v-35.3h169.4v35.3z"/></svg>