<svg version="1.2" xmlns="http://www.w3.org/2000/svg" viewBox="0 0 1549 524" width="1549" height="524"><defs><clipPath clipPathUnits="userSpaceOnUse" id="cp1"><path d="m-478-712h6698v9478h-6698z"/></clipPath></defs><style>.a{fill:#453628}.b{fill:#ee7203}</style><g clip-path="url(#cp1)"><path fill-rule="evenodd" class="a" d="m704.1 292.5h61.4c31.8 0 49.3 6.8 49.3 37.4 0 20.3-7.8 29-21.5 32.4 14.3 2.6 25.3 12.3 25.3 35 0 29.8-15.1 40.8-49.3 40.8h-65.2zm61.4 59.6c11.1 0 19.9-1.7 19.9-17.5 0-15.9-9-18.2-19.9-18.2h-32.6v35.7zm3.8 61.7c11.1 0 19.8-3 19.8-18.9 0-15.9-8.7-19.9-19.8-19.9h-36.4v38.8zm198.5 24.3h-33.3l-31.2-46.4h-27.7v46.4h-29v-145.6h58.1c35.9 0 53.6 8.5 53.6 49.3 0 28.5-9 39.4-25.8 43.6zm-63.2-70.9c15.7 0 24.4-2.7 24.4-25 0-22.5-9.7-25.7-24.8-25.7h-28.6v50.7zm103.4 70.9h-29.2l56.4-146.6h26.8l56.5 146.6h-30.8l-9.8-26.3h-60.2zm40-108.4c0 0-21.3 58.1-21.5 58.1h42.7zm93.3-37.2h29l64 92.7v-92.7h28v145.6h-25l-68-98.8v98.8h-28zm154.5 0h54.5c43.1 0 65.7 10.2 65.7 72.8 0 62.7-22.6 72.8-65.7 72.8h-54.5zm54.3 121.5c25.4 0 35.1-10.5 35.1-43.9v-9.5c0-33.7-9.7-44.2-35.1-44.2h-25.1v97.6zm141.4 25.7c-22 0-43.9-3.8-50.6-5.8l4.5-24.9c6 1.4 32.4 5.4 46.3 5.4 20.7 0 27-2.8 27-17.9 0-13.5-4.1-14.5-28-19.2-39.7-8-49.4-14.2-49.4-45.8 0-30.4 19.4-40.8 52.6-40.8 17.7 0 42.1 3 48.5 5l-4.6 24.7c-9.1-1.4-27.4-4.2-44.1-4.2-16.9 0-22.8 3.8-22.8 15.7 0 13.7 4.5 15.3 27.4 19.9 38.1 7.6 50.5 12.3 50.5 45.3 0 32.7-18.3 42.6-57.3 42.6zm-772.7-323.6v143h-14.6v-143zm93.4 101.1l-46.6-72.7v114.6h-13.6v-143h12.6l54.1 82 54.3-82h12.6v143h-14.4v-114.6l-46.6 72.7zm104.6-101.1h51.6c32.9 0 48.2 12.6 48.2 44.7 0 32.1-15.9 45.1-48.6 45.1h-36.8v53.2h-14.4zm51.6 76.7c20.1 0 33.9-3.4 33.9-31.6 0-28.2-14.4-31.9-34.3-31.9h-36.8v63.5zm71.1-76.7h83.9v13.4h-69.5v47.3h53.2v13.4h-53.2v55.6h69.5v13.4h-83.9zm212.8 143h-16.9l-35-55.2h-37.6v55.2h-14.4v-143h49.6c32.9 0 48.2 11.6 48.2 43.7 0 26-10.8 38.4-30.1 42.4zm-54.3-68.2c20.1 0 33.8-2.6 33.8-30.8 0-28.1-14.3-30.9-34.2-30.9h-34.9v61.7zm94.4-74.9v143.1h-14.5v-143.1zm34.8 143.1h-14.1l54.9-144.1h12.8l54.9 144.1h-14.8l-13.2-34.7h-67.3zm46.9-123l-28.6 75.1h57.1zm80.1-20.1h14.4v129.7h75.4v13.4h-89.8zm-1051.7 171.8c-5.8 19-25.9 29.7-44.8 23.9-19-5.8-29.7-25.9-23.9-44.9 5.8-19 25.9-29.7 44.9-23.9 19 5.8 29.6 25.9 23.8 44.9z"/><path class="b" d="m332.5 327.1c-15.8-11.2-25.3-29.5-25.6-48.9-0.3-2.4-1.8-4.6-4.2-5.5l-165.9-50.8c0 0-5.1-0.9-7.7-0.9-13.8-0.1-26.7 8.8-31 22.7-5 16.4 3.9 33.8 19.9 39.6l105.4 32.3-204.9 109.1v0.1c-16.9 9-23.2 30.1-14.1 47 4.5 8.5 12.1 14.3 20.7 16.8 3 0.9 6.2 1.4 9.4 1.4 5.7 0.1 11.4-1.2 16.8-4.1 0.4-0.3 202.7-107.8 202.7-107.8l-31.3 102.5c-4.2 16.5 5.2 33.7 21.7 38.7l0.3 0.1c2.9 0.9 5.9 1.3 8.8 1.3 13.4 0.2 25.9-8.2 30.6-21.3h0.1l50.6-165.6c0.5-2.5-0.4-5.1-2.3-6.7zm234 53.7c4.1-13.4-3.2-27.6-16.3-32.4l-125.1-38.3c-2.6-0.7-5.3 0.2-7 2.2-11.3 16.3-29.9 26.1-49.8 26.2-2.7 0.2-5.1 2-6 4.8l-38.4 125.5h0.1c-3.4 13.5 4.3 27.4 17.7 31.5l0.3 0.1c2.3 0.7 4.7 1 7.1 1.1 10.9 0.1 21-6.7 24.9-17.4h0.1l26.3-86.1 59.1 110.9h0.1c3.7 7 9.9 11.7 16.9 13.8 2.5 0.7 5.1 1.1 7.7 1.1 4.6 0.1 9.3-1 13.7-3.4 13.7-7.4 18.9-24.5 11.5-38.3l-58.1-109.1 83.6 25.6c2.1 0.5 4.2 0.8 6.2 0.8 11.3 0.1 21.9-7.1 25.4-18.6zm-405.5-181.8l149.8 45.8c2.6 0.6 5.2-0.2 6.9-2.1 11-16 29-25.8 48.3-26.5h0.1c2.6-0.2 5-1.9 5.9-4.6l45.5-149.3-0.1-0.1c3.9-15.2-4.9-31-20.1-35.7l-0.7-0.2c-2.7-0.7-5.4-1.1-8-1.1-12.3 0.1-23.6 7.7-27.8 19.7l-29.9 97.7-67.2-125.7-0.1 0.1v-0.1c-4.3-8-11.5-13.4-19.6-15.7-2.8-0.8-5.8-1.2-8.8-1.2-5.1 0.1-10.3 1.3-15 3.9-15.7 8.4-21.5 27.8-13.1 43.4l66 123.7-94.8-28.9c0 0-4.9-0.9-7.4-0.9-12.7 0-24.4 8.3-28.3 21.1-4.7 15.3 3.5 31.4 18.4 36.7zm241.4 27.8c16.4 11.1 26.4 29.7 26.7 49.5 0.2 2.7 2 5.1 4.7 6l79.8 24.4c0 0 3.3 0.5 5 0.5 8.2-0.1 15.8-5.4 18.3-13.7l0.1-0.2c2.9-9.8-2.5-20.2-12.1-23.6l-63.6-19.6 81.9-43.8v-0.1c5.2-2.7 8.7-7.3 10.2-12.5 1.5-5.1 1.1-10.7-1.6-15.8-3.8-7.1-11.1-11.1-18.6-11-3.3 0-6.7 0.8-9.8 2.5l-80.6 43 18.8-61.6 0.1-0.3c2.6-10-3.1-20.3-13.1-23.3-1.9-0.6-3.9-0.9-5.8-0.9-8 0.1-15.3 5.1-18.1 12.9l-0.1-0.1-24.5 80.3c-0.8 2.8 0.2 5.7 2.3 7.4z"/></g></svg>