<svg version="1.2" xmlns="http://www.w3.org/2000/svg" viewBox="0 0 1578 638" width="1578" height="638">
	<title>Impinj_Logo_CLR_4CP-pdf-svg</title>
	<defs>
		<clipPath clipPathUnits="userSpaceOnUse" id="cp1">
			<path d="m-96.34-72.81h1765.24v784.34h-1765.24z"/>
		</clipPath>
	</defs>
	<style>
		.s0 { fill: #53575a } 
		.s1 { fill: #ef3742 } 
	</style>
	<g id="Clip-Path: Page 1" clip-path="url(#cp1)">
		<g id="Page 1">
			<path id="Path 1" fill-rule="evenodd" class="s0" d="m802.1 423.7v0.8c0 74.3-57.8 112.7-129.7 112.7h-53.7v96.2h-70.2v-320.6h130.7c76.6 0 122.9 45.5 122.9 110.9zm-71.4 1.3c0-31.6-22.1-48.4-57.2-48.4h-54.8v98h56.2c35.1 0 55.8-21.2 55.8-48.8zm492.8-112.2h69.5v320.6h-60l-155.2-203.7v203.7h-69.5v-320.6h64.8l150.4 197.5zm-828.1 0h76v320.5h-70v-209.1l-90.2 136.7h-1.9l-89.4-135.4v207.8h-69.2v-320.5h76l84.5 135.6zm-395.3 0h70.6v320.6h-70.6zm1552.1 50.3c-14.2 0-25.8-11.4-25.8-25.6 0-14.1 11.6-25.6 25.8-25.6 14.2 0 25.7 11.5 25.7 25.6 0 14.2-11.5 25.6-25.7 25.6zm21.4-25.6c0-11.9-9.6-21.5-21.4-21.5-11.8 0-21.4 9.6-21.4 21.5 0 11.9 9.6 21.6 21.4 21.6 11.8 0 21.4-9.7 21.4-21.6zm-22.1 3.3h-4.9v11.4h-4.4v-29.4h12c5.8 0 9.8 3.6 9.8 9 0 6.6-5.7 8.7-7.3 8.7l7.9 11.7h-5.5zm-4.9-13.8v10h7.7c3.2 0 5.4-1.9 5.4-4.9 0-3.2-2.2-5.1-5.4-5.1zm-45-15v215.4c0 76-59.9 110.6-115.5 110.6-9.8 0-17.4-0.8-26.7-3-0.5-0.3-1.1-0.8-1.1-1.4v-62.6c0-0.6 0.6-1.1 1.1-0.8 10.1 2.7 12.8 3.2 26.7 3.2 25.3 0 43.9-17.9 44.4-48.7v-212.7zm-642.6 4.9c21.5 10.1 46 9.8 67 0 0.8-0.3 1.9 0.3 1.9 1.1v315.3h-70.5v-315.3c0-0.8 0.8-1.4 1.6-1.1z"/>
			<path id="Path 2" class="s1" d="m892.8 279.1c-19 0-34.3-15.3-34.3-34.2 0-18.9 15.3-34.2 34.3-34.2 19 0 34.3 15.3 34.3 34.2 0 18.9-15.3 34.2-34.3 34.2zm0-137c-14.2 0-25.6-11.5-25.6-25.8 0-14.2 11.4-25.7 25.6-25.7 14.2 0 25.6 11.5 25.6 25.7 0 14.3-11.4 25.8-25.6 25.8zm-80.9 28.6c-14.2 0-25.6-11.5-25.6-25.6 0-14.2 11.4-25.6 25.6-25.6 14.1 0 25.6 11.4 25.6 25.6 0 14.1-11.5 25.6-25.6 25.6zm206.6 73.2c-14.2 0-25.7-11.5-25.7-25.7 0-14.2 11.5-25.7 25.7-25.7 14.2 0 25.8 11.5 25.8 25.7 0 14.2-11.6 25.7-25.8 25.7zm94.4-26.4c-10.7 0-19.3-8.6-19.3-19.3 0-10.7 8.6-19.4 19.3-19.4 10.7 0 19.3 8.7 19.3 19.4 0 10.7-8.6 19.3-19.3 19.3zm-440.2 0c-10.7 0-19.4-8.6-19.4-19.3 0-10.7 8.7-19.4 19.4-19.4 10.7 0 19.3 8.7 19.3 19.4 0 10.7-8.6 19.3-19.3 19.3zm78.4-128c-10.7 0-19.3-8.6-19.3-19.3 0-10.7 8.6-19.4 19.3-19.4 10.7 0 19.4 8.7 19.4 19.4 0 10.7-8.7 19.3-19.4 19.3zm141.7-50.1c-10.7 0-19.4-8.6-19.4-19.3 0-10.7 8.7-19.4 19.4-19.4 10.7 0 19.3 8.7 19.3 19.4 0 10.7-8.6 19.3-19.3 19.3zm141.5 50.1c-10.6 0-19.2-8.6-19.2-19.3 0-10.7 8.6-19.4 19.2-19.4 10.6 0 19.2 8.7 19.2 19.4 0 10.7-8.6 19.3-19.2 19.3zm-60.6 81.2c-14.2 0-25.6-11.5-25.6-25.6 0-14.2 11.4-25.6 25.6-25.6 14.2 0 25.6 11.4 25.6 25.6 0 14.1-11.4 25.6-25.6 25.6zm-206.6 73.2c-14.3 0-25.8-11.5-25.8-25.7 0-14.2 11.5-25.7 25.8-25.7 14.2 0 25.7 11.5 25.7 25.7 0 14.2-11.5 25.7-25.7 25.7z"/>
		</g>
	</g>
</svg>