<svg version="1.2" xmlns="http://www.w3.org/2000/svg" viewBox="0 0 1531 553" width="1531" height="553">
	<title>Acacia_Research_Logo-svg-svg</title>
	<style>
		.s0 { fill: #58d3ee } 
		.s1 { fill: #04afe5 } 
		.s2 { fill: #000000 } 
	</style>
	<path id="path2" fill-rule="evenodd" class="s0" d="m1183.7 0h11.4c-0.3 50-0.3 100.1 0 150.1q-2.8 0.4-5.7 0.9c-61.7 13.3-123.4 26.8-185.3 40-1.3-52.6 22.2-104.7 60.7-140.2 32.2-30.1 74.9-48.2 118.9-50.8z"/>
	<path id="path4" fill-rule="evenodd" class="s1" d="m1195.1 0h10.7c51.3 2.8 100.8 27.4 134 66.6 29.5 34.3 46.4 79.3 45.7 124.5-63.5-13.5-126.9-27.6-190.4-41-0.3-50-0.3-100.1 0-150.1z"/>
	<path id="path6" fill-rule="evenodd" class="s2" d="m76.8 287.4c25.5-13.1 55.1-16.5 83.4-13 29.1 3.8 56.7 17.6 77.8 38 0.3 0 0.5-0.2 0.8-0.3 0.3-11 0-22.1 0-33.1 13.5 0 26.9 0 40.3 0 0 89.3 0 178.6 0 268-13.4-0.2-26.8 0-40.3-0.2q0.2-17.3 0-34.8c-26.2 26.3-63.2 41.6-100.4 40.6-38.6 0.9-76.7-16.3-102.6-44.8-21.1-22.9-33.4-53.2-35.4-84.2v-20.9c1.2-13.4 3.6-26.8 8.5-39.4 11.9-32.8 36.5-60.7 67.9-75.9zm46.2 22.5c-24.8 3.8-47.9 18.2-62.2 38.9-25.7 36.7-26.2 89.3-0.5 126.1 13.4 19.4 34.1 33.7 57.1 39.3 23.6 5.4 49.3 2.3 70.3-9.9 22.7-12.6 39.1-35.1 46.1-60 5.3-18.7 5.4-38.8 1.1-57.6-6.4-27.5-24.4-52-49-65.8-18.8-11-41.5-14.4-62.9-11zm249.1-9.6c23.8-17.7 53.3-27.5 83-27.1 37.5-1.1 75.1 14.4 101.2 41.3-10 8.3-20 16.7-30.2 24.9-15.3-15.7-35.4-27-57.3-29.9-22.9-3.1-46.9 1.6-66.2 14.6-21.3 13.6-35.6 36.3-41.6 60.6-5.8 24.1-4 50.4 6.1 73.1 9.6 22.2 27.6 40.7 49.8 50.6 18.6 8.6 39.8 10.4 59.8 6.3 19.4-3.9 36.8-14.5 50.5-28.6 9.5 8.6 19.2 16.7 28.6 25.2-22 22.5-51.7 37-82.9 40.5-24 2.6-48.9 0.2-71.4-9.4-30.3-12.6-56.3-36.2-70.7-65.9-13.4-26.5-16.7-57.1-12.5-86.3 5.4-35.5 24.9-68.6 53.8-89.9zm232.3 30.5c21.3-30.5 55.9-51.4 92.7-56.2 25.7-3.4 52.3-1 76.2 9.3 16.5 6.9 31.2 17.1 44.1 29.4q0-17.2 0-34.3 20 0 40 0c-0.1 89.3 0 178.6-0.1 268q-19.9-0.2-39.8 0c-0.1-11.8 0-23.5-0.1-35.1-21 21-48.7 35.1-78.1 39.4-24.2 3.2-49.4 1.5-72.3-7.5-27.5-10.5-51.4-29.9-67.1-54.8-30.2-47.3-28.3-112.7 4.5-158.2zm96.5-20.9c-26.2 4.1-50.1 20.1-64.2 42.5-24.8 38.8-22.6 93.5 7 129 16.6 20 41.3 33.5 67.3 35.1 19.5 1.5 39.5-2.7 56.3-12.9 23.7-13.7 40.3-38.1 46.3-64.6 5.1-23.8 3.2-49.3-6.9-71.5-9.5-21.1-26.4-38.9-47.1-49.1-18-9.2-39-11.6-58.7-8.5zm213.9 29.8c24.1-40.9 70.8-67.2 118.2-66.5 37.7-1.1 75.6 14.2 101.7 41.5-10.1 8.1-20.1 16.5-30.1 24.9-16-16.7-37.5-28.2-60.7-30.5-21-2.2-42.7 2.2-60.6 13.5-22.9 13.9-38.3 38-44.3 63.7-5.1 23.3-3.6 48.4 5.9 70.3 8.9 21 25.3 38.9 45.6 49.4 31.2 16.7 71.7 13.9 100.3-7 5.5-3.5 9.8-8.7 15-12.6 9.6 8.1 18.9 16.7 28.5 24.9-21.2 21.6-49.6 36.1-79.7 40.1-21.6 2.7-44.1 1.5-64.8-5.3-29.6-9.8-56-29.8-72.8-56-29-44.5-29.4-105.1-2.2-150.4zm452.4-64.6c29.4-4.6 60.7-1.4 87.3 12.5 13.6 6.3 25.6 15.4 36.6 25.6q0-17.1 0-34.2 20 0 39.9 0v268c-13.3 0-26.5-0.2-39.9 0q-0.2-17.5 0-35c-26.1 25.9-62.7 41.5-99.5 40.6-38 1.1-75.9-15.3-101.9-42.9-18-18.8-30.2-43.2-35.1-68.8-5.6-31.4-1.6-64.9 13.3-93.3 19.1-38.2 57.3-65.9 99.3-72.5zm7.5 34.8c-30.2 4.6-57 25.2-70 52.7-10.9 22.2-13.8 48.1-9.2 72.2 5 26.3 20.3 50.7 42.6 65.6 30 20.7 71.9 21.9 102.9 3.1 16.6-9.6 30-24.7 38.3-41.9 16.6-34.8 13.9-78.7-8.3-110.5-10-14.6-24.2-26.4-40.3-33.9-17.3-8.1-37.1-10.3-56-7.3zm-199.9-30.9q19.9 0 39.8 0c0 89.3 0.1 178.6 0 268q-19.9-0.2-39.8 0c-0.1-89.4 0-178.7 0-268z"/>
</svg>