<svg version="1.2" xmlns="http://www.w3.org/2000/svg" viewBox="0 0 1547 180" width="1547" height="180">
	<title>logo-en</title>
	<defs>
		<clipPath clipPathUnits="userSpaceOnUse" id="cp1">
			<path d="m1546.62 1v178.65h-1545.62v-178.65z"/>
		</clipPath>
	</defs>
	<style>
		.s0 { fill: #009178 } 
		.s1 { fill: #dc231e } 
	</style>
	<g id="그룹_95959">
		<g id="그룹_95950">
			<path id="패스_67228" class="s0" d="m284.1 36.8v107.6h-18.7v-52.5h-47v52.5h-18.8v-107.6h18.8v42.5h47v-42.5z"/>
			<g id="그룹_95949">
				<g id="Clip-Path: 그룹_95948" clip-path="url(#cp1)">
					<g id="그룹_95948">
						<path id="패스_67229" class="s0" d="m346.6 144.4q-0.6-1-1.1-2.1-0.6-1.1-0.9-2.2-0.4-1.1-0.6-2.3-0.2-1.2-0.3-2.4-2.3 2.5-5.1 4.6-2.9 2-6 3.4-3.2 1.4-6.6 2.1-3.4 0.7-6.9 0.7c-3.3 0.1-6.5-0.4-9.5-1.6-3.1-1.2-5.8-3-8.1-5.3-2.3-2.3-4.1-5-5.3-8.1-1.1-3-1.7-6.3-1.5-9.5 0-14 10.5-25.6 28.9-27.6l18.6-2.1c0-14.5-7.6-18.9-15.8-18.9q-3.3 0.2-6.4 0.9-3.2 0.7-6.2 1.9-3 1.2-5.7 2.8-2.8 1.7-5.2 3.9l-3-13.3q3-2.1 6.4-3.7 3.3-1.6 6.9-2.6 3.5-1.1 7.2-1.5 3.6-0.5 7.3-0.4c14.5 0 32.4 7.2 32.4 29.7v34q-0.1 2.5 0.1 5 0.2 2.5 0.7 5 0.4 2.5 1 4.9 0.7 2.4 1.6 4.7zm-4.1-41l-12.1 1.6c-10.3 1.4-17.5 7.3-17.5 15.9-0.1 1.6 0.1 3.2 0.6 4.7 0.5 1.6 1.4 3 2.5 4.2 1 1.2 2.4 2.2 3.8 2.8 1.5 0.7 3.1 1.1 4.7 1.1 9.7 0 18-4.6 18-22.5z"/>
						<path id="패스_67230" class="s0" d="m392 62.6v7.9q2.2-2.3 4.9-4.1 2.6-1.8 5.6-3 3-1.2 6.1-1.8 3.2-0.6 6.4-0.5c19.1 0 31 12 31 31.7v51.6h-17.7v-48.6c0-13.4-6.4-22.3-17.8-22.3-10.3 0-18.3 8.6-18.3 22.9v48h-17.6v-81.8z"/>
						<path id="패스_67231" class="s0" d="m507.9 144.4q-0.6-1-1.1-2.1-0.5-1.1-0.9-2.2-0.4-1.1-0.6-2.3-0.2-1.2-0.2-2.4-2.4 2.5-5.2 4.6-2.9 2-6 3.4-3.2 1.4-6.6 2.1-3.4 0.7-6.9 0.7c-3.3 0.1-6.5-0.4-9.5-1.6-3.1-1.2-5.8-3-8.1-5.3-2.3-2.3-4.1-5-5.3-8.1-1.1-3-1.7-6.3-1.5-9.5 0-14 10.6-25.6 28.9-27.6l18.7-2.1c0-14.5-7.7-18.9-15.9-18.9q-3.3 0.2-6.4 0.9-3.2 0.7-6.1 1.9-3 1.2-5.8 2.8-2.7 1.7-5.2 3.9l-3-13.3q3.1-2.1 6.4-3.7 3.3-1.6 6.9-2.6 3.5-1.1 7.2-1.5 3.6-0.5 7.3-0.4c14.6 0 32.4 7.2 32.4 29.7v34q-0.1 2.5 0.1 5 0.2 2.5 0.7 5 0.4 2.5 1.1 4.9 0.6 2.4 1.5 4.7zm-4.1-41l-12.1 1.6c-10.3 1.4-17.5 7.3-17.5 15.9-0.1 1.6 0.1 3.2 0.6 4.7 0.5 1.6 1.4 3 2.5 4.2 1.1 1.2 2.4 2.2 3.8 2.8 1.5 0.7 3.1 1.1 4.7 1.1 9.8 0 18-4.6 18-22.5z"/>
						<path id="패스_67232" class="s0" d="m616.2 36.8v12.6h-40.4v36.4h39.4v12.5h-39.4v46.1h-18.8v-107.6z"/>
						<path id="패스_67233" class="s0" d="m625.1 41.6c0-1.4 0.2-2.8 0.7-4.1 0.5-1.3 1.3-2.5 2.2-3.5 1-1.1 2.2-1.9 3.4-2.5 1.3-0.6 2.7-0.9 4.1-0.9 1.4 0 2.8 0.3 4.1 0.9 1.3 0.6 2.5 1.4 3.5 2.4 1 1.1 1.7 2.3 2.2 3.6 0.6 1.3 0.8 2.7 0.8 4.1 0 1.5-0.2 2.9-0.8 4.2-0.5 1.3-1.2 2.5-2.2 3.5-1 1-2.2 1.8-3.5 2.4-1.3 0.6-2.7 0.9-4.1 0.9-1.4 0-2.8-0.3-4-0.9-1.3-0.6-2.5-1.4-3.5-2.4-0.9-1-1.7-2.2-2.2-3.5-0.5-1.4-0.7-2.8-0.7-4.2zm1.7 21h17.6v81.8h-17.6z"/>
						<path id="패스_67234" class="s0" d="m677.5 62.6v7.9q2.2-2.3 4.8-4.1 2.7-1.8 5.7-3 2.9-1.2 6.1-1.8 3.2-0.6 6.4-0.5c19.1 0 30.9 12 30.9 31.7v51.6h-17.6v-48.6c0-13.4-6.5-22.3-17.8-22.3-10.3 0-18.4 8.7-18.4 22.9v48h-17.5v-81.8z"/>
						<path id="패스_67235" class="s0" d="m793.4 144.4q-0.6-1-1.2-2.1-0.5-1.1-0.8-2.2-0.4-1.1-0.6-2.3-0.2-1.2-0.3-2.4-2.3 2.5-5.2 4.6-2.8 2-6 3.4-3.1 1.4-6.6 2.1-3.4 0.7-6.8 0.7c-3.3 0.1-6.5-0.4-9.6-1.6-3-1.2-5.7-3-8-5.3-2.3-2.3-4.1-5-5.3-8.1-1.2-3-1.7-6.3-1.5-9.5 0-14 10.5-25.6 28.9-27.6l18.6-2.1c0-14.5-7.6-18.9-15.9-18.9q-3.2 0.2-6.3 0.9-3.2 0.7-6.2 1.9-3 1.2-5.7 2.8-2.8 1.7-5.2 3.9l-3-13.3q3-2.1 6.4-3.7 3.3-1.6 6.8-2.6 3.6-1.1 7.2-1.5 3.7-0.5 7.4-0.4c14.5 0 32.3 7.2 32.3 29.7v34q0 2.5 0.2 5 0.2 2.5 0.6 5 0.5 2.5 1.1 4.9 0.7 2.4 1.6 4.7zm-4.1-41l-12.1 1.6c-10.3 1.4-17.5 7.3-17.5 15.9-0.1 1.6 0.1 3.2 0.6 4.7 0.5 1.6 1.4 3 2.4 4.2 1.1 1.2 2.5 2.2 3.9 2.8 1.5 0.7 3.1 1.1 4.7 1.1 9.7 0 18-4.6 18-22.5z"/>
						<path id="패스_67236" class="s0" d="m838.8 62.6v7.9q2.2-2.3 4.8-4.1 2.7-1.8 5.7-3 2.9-1.2 6.1-1.8 3.2-0.6 6.4-0.5c19.1 0 30.9 12 30.9 31.7v51.6h-17.6v-48.6c0-13.4-6.4-22.3-17.8-22.3-10.3 0-18.4 8.6-18.4 22.9v48h-17.5v-81.8z"/>
						<path id="패스_67237" class="s0" d="m968.4 139.7q-2.5 1.4-5.2 2.6-2.7 1.1-5.6 1.9-2.8 0.8-5.7 1.3-2.9 0.4-5.8 0.5c-5.6 0.2-11.2-0.7-16.5-2.7-5.2-2.1-9.9-5.1-13.9-9.1-4-3.9-7.1-8.7-9.2-13.9-2-5.2-3-10.8-2.8-16.4-0.1-5.7 0.9-11.3 3.1-16.6 2.1-5.3 5.3-10.1 9.3-14.1 4.1-4 8.9-7.2 14.2-9.2 5.3-2.1 11-3.1 16.7-2.9q2.6 0 5.2 0.3 2.6 0.3 5.1 0.9 2.5 0.7 4.9 1.7 2.3 1 4.6 2.3l-2.5 12q-1.8-1.1-3.8-2-2-0.9-4.1-1.5-2.1-0.6-4.2-0.9-2.2-0.3-4.3-0.3c-12.2 0-26.1 10-26.1 29.7 0 15.8 10.4 30.2 26.1 30.2q2.5 0 4.9-0.5 2.5-0.4 4.9-1.3 2.4-0.8 4.6-1.9 2.2-1.2 4.2-2.7z"/>
						<path id="패스_67238" class="s0" d="m977.6 41.6c0-1.4 0.2-2.8 0.7-4.1 0.5-1.3 1.3-2.5 2.2-3.5 1-1.1 2.1-1.9 3.4-2.5 1.3-0.6 2.7-0.9 4.1-0.9 1.4 0 2.8 0.3 4.1 0.9 1.3 0.6 2.5 1.4 3.5 2.5 1 1 1.7 2.2 2.2 3.5 0.6 1.3 0.8 2.8 0.8 4.2 0 1.4-0.3 2.8-0.8 4.1-0.5 1.3-1.3 2.5-2.2 3.5-1 1-2.2 1.8-3.5 2.4-1.3 0.6-2.7 0.9-4.1 0.9-1.4 0-2.8-0.3-4.1-0.9-1.2-0.6-2.4-1.4-3.4-2.4-0.9-1-1.7-2.2-2.2-3.5-0.5-1.4-0.7-2.8-0.7-4.2zm1.7 21h17.6v81.8h-17.6z"/>
						<path id="패스_67239" class="s0" d="m1061.1 144.4q-0.7-1-1.2-2.1-0.5-1.1-0.9-2.2-0.3-1.1-0.6-2.3-0.2-1.2-0.2-2.4-2.4 2.5-5.2 4.6-2.8 2-6 3.4-3.2 1.4-6.6 2.1-3.4 0.7-6.9 0.7c-3.2 0.1-6.5-0.4-9.5-1.6-3-1.2-5.8-3-8.1-5.3-2.3-2.3-4.1-5-5.2-8.1-1.2-3-1.7-6.3-1.6-9.5 0-14 10.6-25.6 28.9-27.6l18.7-2.1c0-14.5-7.7-18.9-15.9-18.9q-3.2 0.2-6.4 0.9-3.1 0.7-6.1 1.9-3 1.2-5.8 2.8-2.7 1.7-5.1 3.9l-3.1-13.3q3.1-2.1 6.4-3.7 3.4-1.6 6.9-2.6 3.5-1.1 7.2-1.5 3.7-0.5 7.4-0.4c14.5 0 32.3 7.2 32.3 29.7v34q0 2.5 0.2 5 0.2 2.5 0.6 5 0.4 2.5 1.1 4.9 0.6 2.4 1.5 4.7zm-4.1-41l-12 1.6c-10.3 1.4-17.6 7.3-17.6 15.9-0.1 1.6 0.1 3.2 0.6 4.7 0.6 1.6 1.4 3 2.5 4.2 1.1 1.2 2.4 2.2 3.9 2.8 1.4 0.7 3 1.1 4.6 1.1 9.8 0 18-4.6 18-22.5z"/>
						<path id="사각형_45981" fill-rule="evenodd" class="s0" d="m1107.4 32.2v112.2h-17.8v-112.2z"/>
						<path id="패스_67240" class="s0" d="m1213.3 93.8h18.8v44.6q-4.3 1.7-8.7 3.1-4.5 1.3-9 2.3-4.5 0.9-9.1 1.5-4.6 0.5-9.3 0.6c-37.1 0-57.9-24.9-57.9-55.6 0-28.3 21-55 59.2-55q4.4 0 8.7 0.6 4.4 0.6 8.7 1.7 4.2 1.1 8.3 2.7 4.1 1.6 8 3.7l-3 13q-3.4-2.3-7-4-3.7-1.7-7.5-2.8-3.9-1.1-7.9-1.5-4-0.5-8-0.4c-24.8 0-40.2 17.7-40.2 42.1 0 26.5 17.8 42.5 38.5 42.5q2.2 0.1 4.5 0 2.2-0.2 4.4-0.6 2.2-0.4 4.3-1.1 2.2-0.7 4.2-1.6z"/>
						<path id="패스_67241" class="s0" d="m1262.7 62.6v9.4q1.9-2.3 4.2-4.2 2.4-1.8 5-3.3 2.7-1.4 5.6-2.2 2.9-0.9 5.8-1.2 1.8-0.1 3.5 0 1.7 0.2 3.4 0.5 1.7 0.4 3.4 1 1.6 0.6 3.2 1.4l-3.3 12.4q-1.5-0.7-3.1-1.2-1.6-0.6-3.2-0.9-1.6-0.3-3.3-0.4-1.7-0.1-3.3 0.1c-2.7 0.3-5.2 1.2-7.5 2.5-2.3 1.4-4.4 3.1-6 5.2-1.6 2.1-2.9 4.5-3.6 7.1-0.8 2.5-1 5.2-0.7 7.9v47.8h-17.7v-81.9z"/>
						<path id="패스_67242" class="s0" d="m1295.2 103.4c0-24.7 17.2-42.3 39.1-42.3 22 0 39.5 17.6 39.5 42.3 0 24.9-17.5 42.5-39.5 42.5-21.9 0-39.1-17.6-39.1-42.5zm18.5 0c0 19 9 31.4 20.7 31.4 11.6 0 20.8-12.4 20.8-31.4 0-18.9-9.2-31.4-20.8-31.4-11.7 0-20.7 12.5-20.7 31.4z"/>
						<path id="패스_67243" class="s0" d="m1438.4 144.4v-7.8q-2.3 2.3-5 4.1-2.6 1.7-5.6 2.9-2.9 1.2-6.1 1.8-3.1 0.6-6.3 0.5c-19.2 0-31-12-31-31.7v-51.6h17.7v48.6c0 13.4 6.4 22.3 17.8 22.3 10.3 0 18.3-8.6 18.3-22.9v-48h17.6v81.8z"/>
						<path id="패스_67244" class="s0" d="m1469.2 175.6v-113h17.8v9.5q2.2-2.4 4.8-4.4 2.7-2 5.7-3.5 2.9-1.4 6.1-2.2 3.3-0.8 6.6-0.9c22 0 36.4 16.9 36.4 42.5 0 25.1-14.4 42.3-36 42.3q-3.3-0.1-6.5-0.8-3.2-0.7-6.2-2-3-1.3-5.8-3.1-2.7-1.8-5.1-4.1v39.7zm17.8-71.8c0 18.5 9.3 31.3 20.5 31.3 12 0 20.9-13.7 20.9-31.3 0-18-8.9-31.4-20.9-31.4-11.5 0-20.5 13.4-20.5 31.4z"/>
						<path id="패스_67245" class="s1" d="m69.7 18.1c0 4.5 1.7 8.7 4.9 11.8 3.1 3.2 7.3 4.9 11.8 4.9 4.4 0 8.7-1.7 11.8-4.9 3.2-3.1 4.9-7.3 4.9-11.8q0-0.5 0-1-0.1-0.5-0.2-1-0.1-0.5-0.3-1-0.2-0.5-0.4-1c-1.4-3-3-4.5-2.9-8.1 0.2-4.9-6.1-5-9.5-5q-1.4-0.1-2.8 0.1-1.4 0.1-2.8 0.4-1.3 0.2-2.7 0.7-1.3 0.4-2.6 1-2 1-3.7 2.5-1.7 1.6-3 3.5-1.2 1.9-1.8 4.1-0.7 2.2-0.7 4.4z"/>
						<path id="패스_67246" class="s0" d="m171.3 38.9c-1.2-1.8-3.6-1.8-8.1-1q-7.1 1.4-14.3 2.5-7.1 1.1-14.3 1.8-7.2 0.8-14.4 1.3-7.2 0.5-14.5 0.7-5.7 0.3-11.5 0.3-5.7 0.1-11.4 0-5.8-0.1-11.5-0.4-5.7-0.3-11.4-0.8c-13-1.1-37.4-5.1-42.9-5.6q-1.6-0.3-3.3-0.3-1.7 0-3.4 0.2-1.6 0.3-3.2 0.8-1.6 0.6-3.1 1.4c-0.9 0.9-1.6 2-2.1 3.1-0.6 1.2-0.8 2.4-0.9 3.7 0 1.3 0.1 2.5 0.6 3.7 0.4 1.2 1 2.3 1.8 3.3q1.8 2.4 4 4.4 2.1 2.1 4.7 3.6 2.5 1.6 5.3 2.7 2.7 1.1 5.7 1.6 7.5 1 15.1 1.5 7.6 0.6 15.3 0.8 7.6 0.1 15.2-0.1 7.6-0.3 15.2-0.9 6.8-0.6 13.6-1.4 6.8-0.8 13.5-2 6.7-1.1 13.4-2.5 6.7-1.5 13.3-3.2 3.5-1 7-2.1 3.5-1.2 6.9-2.5 3.4-1.2 6.8-2.7 3.4-1.4 6.7-3c3.4-1.9 8.2-5.6 6.2-8.9z"/>
						<path id="패스_67247" class="s0" d="m104 79.7c-2.8-1.6-5.7-2.7-8.7-3.5-3-0.7-6.1-1.1-9.2-1.1-3.1 0-6.2 0.4-9.2 1.2-3 0.8-5.9 2-8.6 3.6-4.3 2.4-8 5.6-11 9.5-3 3.9-5.2 8.4-6.4 13.1-1.3 4.8-1.6 9.7-0.9 14.6 0.7 4.8 2.4 9.5 4.9 13.7 8.7 13.6 20.3 10.3 23.6 6.9q1.2-1.2 1.9-2.8 0.6-1.6 0.7-3.3 0-1.7-0.5-3.3-0.6-1.6-1.7-2.9-1.1-1.1-2-2.5-0.9-1.4-1.6-2.9-0.6-1.5-1-3.1-0.3-1.5-0.4-3.2c0-2.6 0.9-5.2 2.4-7.4 1.5-2.2 3.7-3.9 6.2-4.8 2.5-0.9 5.2-1.1 7.8-0.4 2.6 0.7 4.9 2.1 6.6 4.2q1.1 1.5 1.9 3.3 0.8 1.7 1.3 3.6 0.5 1.8 0.6 3.7 0.1 2-0.2 3.9-0.5 6.9-1.6 13.8-1.1 6.8-2.8 13.6-1.7 6.8-4 13.3-2.2 6.6-5 13c-0.6 1.3-1.4 4.5 1 5.8 1.8 0.9 4 0.1 6.1-1.8q3.3-3.2 6.2-6.7 3-3.4 5.6-7.1 2.6-3.8 4.9-7.7 2.2-4 4.1-8.1 2.3-4.9 4-10.1 1.6-5.2 2.6-10.5 1-5.4 1.2-10.8 0.3-5.4-0.1-10.8-0.7-4.1-2.3-8-1.6-3.8-4.1-7.2-2.4-3.4-5.5-6.1-3.2-2.8-6.8-4.7z"/>
					</g>
				</g>
			</g>
		</g>
	</g>
</svg>