<svg width="188" height="47" viewBox="0 0 188 47" fill="none" xmlns="http://www.w3.org/2000/svg">
    <g clip-path="url(#sbg7hwhpsa)">
        <path d="M58.064 36.803v-5.805h1.562v5.467c0 1.848.683 2.369 2.35 2.369 1.668 0 2.364-.52 2.364-2.37v-5.466h1.55v5.805c0 2.031-1.025 3.45-3.913 3.45-2.89 0-3.913-1.419-3.913-3.45zM71.549 33.185v1.444h-.88c-1.169 0-1.47.586-1.47 1.628v3.853H67.7v-6.925h1.497v1.575h.08c.183-1.198.603-1.706 1.548-1.706.381 0 .578.066.723.13zM76.902 38.821h-.079c-.46.99-1.024 1.484-2.39 1.484-1.365 0-2.258-.677-2.258-1.9v-.339c0-1.093.866-1.926 2.495-1.926h2.206v-.508c0-1.015-.473-1.432-1.445-1.432-.971 0-1.484.338-1.523.99l-.013.234h-1.458c.066-1.588 1.025-2.434 3.086-2.434 1.865 0 2.836.755 2.836 2.681v2.708c0 .377.145.507.526.507h.341v1.224c-.263.039-.512.078-.92.078-.866 0-1.404-.352-1.404-1.367zm-2.035.273c1.3 0 2.009-.377 2.009-1.718v-.234H74.76c-.8 0-1.102.403-1.102.937v.182c0 .534.38.833 1.208.833zM86.658 35.489v4.62H85.16v-4.113c0-1.302-.486-1.627-1.563-1.627-1.076 0-1.667.325-1.667 1.627v4.114h-1.497v-6.925h1.497v1.353h.079c.354-.937.88-1.51 2.258-1.51 1.51 0 2.39.664 2.39 2.46zM88.435 30.711h1.694v1.458h-1.694v-1.458zm.105 2.474h1.497v6.925H88.54v-6.925zM96.506 33.185h1.497v6.925h-1.497v-1.367h-.079c-.354.937-.88 1.51-2.18 1.51-1.457 0-2.337-.651-2.337-2.46v-4.608h1.497v4.178c0 1.224.473 1.549 1.497 1.549.972 0 1.602-.325 1.602-1.549v-4.178zM110.569 35.489v4.62h-1.497v-4.152c0-1.263-.486-1.588-1.497-1.588-1.011 0-1.602.325-1.602 1.588v4.153h-1.497v-4.153c0-1.263-.486-1.588-1.497-1.588-1.011 0-1.602.325-1.602 1.588v4.153H99.88v-6.925h1.497v1.353h.079c.355-.937.867-1.51 2.206-1.51 1.431 0 2.009.651 2.245 1.51h.079c.394-.937.932-1.51 2.272-1.51 1.431 0 2.311.664 2.311 2.46zM120.351 39.224c-.683.69-1.733 1.08-2.862 1.08-2.101 0-3.322-1.067-3.322-2.68 0-1.198.617-2.096 1.995-2.708-.774-.807-1.011-1.289-1.011-2.122 0-1.289.998-2.148 2.495-2.148s2.456.82 2.456 2.083c0 1.002-.447 1.744-1.707 2.46l1.969 1.992c.328-.599.499-1.354.499-2.278h1.497c-.013 1.302-.355 2.434-.972 3.293l1.891 1.914h-2.048l-.88-.886zm-.893-.898-2.468-2.486c-.933.508-1.235 1.015-1.235 1.692 0 .846.696 1.484 1.865 1.484.683 0 1.3-.234 1.838-.69zm-2.836-5.454c0 .495.197.82.893 1.523.893-.534 1.155-1.041 1.155-1.549 0-.573-.407-.963-1.024-.963s-1.024.364-1.024.99zM124.802 30.998h1.72l2.64 7.25h.078l2.508-7.25h1.655l-3.362 9.112h-1.825l-3.414-9.112zM138.196 38.821h-.079c-.46.99-1.024 1.484-2.39 1.484s-2.258-.677-2.258-1.9v-.339c0-1.093.866-1.926 2.494-1.926h2.206v-.508c0-1.015-.472-1.432-1.444-1.432s-1.484.338-1.523.99l-.013.234h-1.458c.066-1.588 1.024-2.434 3.086-2.434 1.864 0 2.836.755 2.836 2.681v2.708c0 .377.144.507.525.507h.342v1.224c-.263.039-.512.078-.919.078-.867 0-1.405-.352-1.405-1.367zm-2.036.273c1.3 0 2.009-.377 2.009-1.718v-.234h-2.114c-.801 0-1.103.403-1.103.937v.182c0 .534.381.833 1.208.833zM147.951 35.489v4.62h-1.496v-4.113c0-1.302-.486-1.627-1.563-1.627s-1.668.325-1.668 1.627v4.114h-1.496v-6.925h1.496v1.353h.079c.355-.937.88-1.51 2.259-1.51 1.51 0 2.389.664 2.389 2.46zM154.241 38.821h-.079c-.459.99-1.024 1.484-2.389 1.484-1.366 0-2.259-.677-2.259-1.9v-.339c0-1.093.867-1.926 2.495-1.926h2.206v-.508c0-1.015-.473-1.432-1.444-1.432-.972 0-1.484.338-1.524.99l-.013.234h-1.457c.065-1.588 1.024-2.434 3.085-2.434 1.865 0 2.837.755 2.837 2.681v2.708c0 .377.144.507.525.507h.341v1.224c-.262.039-.512.078-.919.078-.866 0-1.405-.352-1.405-1.367zm-2.035.273c1.3 0 2.009-.377 2.009-1.718v-.234h-2.114c-.801 0-1.103.403-1.103.937v.182c0 .534.381.833 1.208.833zM157.406 36.79v-.286c0-2.057.932-3.476 2.783-3.476 1.274 0 1.996.612 2.325 1.68h.078v-4.1h1.497v9.502h-1.497v-1.523h-.078c-.329 1.067-1.051 1.666-2.325 1.666-1.851 0-2.783-1.42-2.783-3.463zm3.322 2.122c1.405 0 1.864-.573 1.864-1.926V36.4c0-1.458-.459-2.03-1.864-2.03-1.3 0-1.76.572-1.76 2.082v.39c0 1.497.46 2.07 1.76 2.07zM165.862 30.711h1.694v1.458h-1.694v-1.458zm.105 2.474h1.497v6.925h-1.497v-6.925zM173.937 33.185h1.497v6.925h-1.497v-1.367h-.079c-.354.937-.88 1.51-2.179 1.51-1.458 0-2.338-.651-2.338-2.46v-4.608h1.497v4.178c0 1.224.473 1.549 1.497 1.549.972 0 1.602-.325 1.602-1.549v-4.178zM188 35.489v4.62h-1.497v-4.152c0-1.263-.486-1.588-1.497-1.588-1.011 0-1.602.325-1.602 1.588v4.153h-1.497v-4.153c0-1.263-.486-1.588-1.497-1.588-1.011 0-1.602.325-1.602 1.588v4.153h-1.496v-6.925h1.496v1.353h.079c.355-.937.867-1.51 2.206-1.51 1.431 0 2.009.651 2.245 1.51h.079c.394-.937.933-1.51 2.272-1.51 1.431 0 2.311.664 2.311 2.46z" fill="#92A3BC"/>
        <path d="M72.512 25.665H68.24L65.386 17.8l-2.775 7.866h-4.136l-4.863-13.177h4.097l2.954 8.63 3.034-8.63h3.466l3.112 8.63 3.05-8.63h4.076l-4.885 13.177h-.004zM94.628 15.512h-10.4v1.874h9.078v3.046H84.23v1.875h10.675v3.358H80.626V12.488h14.002v3.024zM109.304 16.176c-.512-1.033-1.734-1.25-3.27-1.25-2.324 0-3.567.43-3.567 1.345 0 1.133 1.142 1.15 2.482 1.15.648 0 1.3-.017 2.538-.017 3.94 0 5.769.915 5.769 3.61 0 3.124-2.127 5.055-7.384 5.055-2.6 0-3.9-.217-4.862-.664-1.672-.838-2.482-1.736-2.657-3.71h3.956c.197 1.054 2.285 1.406 3.839 1.406 1.773 0 3.348-.43 3.348-1.562 0-1.21-2.814-.916-5.532-1.016-2.442-.1-5.318-.525-5.318-4.195 0-2.595 1.952-4.274 7.366-4.274 4.548 0 6.342 1.327 6.872 3.983l-3.585.134.005.005zM130.26 15.785h-5.217v9.88h-3.585v-9.88h-5.199v-3.297h14.001v3.297zM147.711 15.512h-10.4v1.874h9.078v3.046h-9.078v1.875h10.676v3.358h-14.278V12.488h14.002v3.024zM167.289 25.665h-4.981l-3.327-5.037h-3.309v5.037h-3.584V12.488h10.377c3.287 0 4.924 1.562 4.924 4.078 0 2.187-1.142 3.727-3.86 4.023l3.76 5.076zM155.668 15.59v1.818h6.793c.648 0 1.12-.29 1.12-.959 0-.586-.472-.86-1.142-.86h-6.775.004zM187.772 25.665h-3.72l-8.193-8.591v8.591h-3.782V12.488h3.821l8.097 8.218v-8.218h3.782v13.177h-.005zM23.705 47C36.797 47 47.41 36.479 47.41 23.5S36.797 0 23.705 0C10.613 0 0 10.521 0 23.5S10.613 47 23.705 47z" fill="#F1C61B"/>
        <path d="m17.963 22.667 4.985-9.75h1.514l4.137 8.088c-3.428.434-7.07.98-10.636 1.662zM11.472 24.099c-.394.1-.77.204-1.12.308l-4.518-11.49h6.224l4.215 10.084a99.832 99.832 0 0 0-4.801 1.098zM21.893 27.466l-5.152 10.461h-1.076l-1.151-2.933a3.518 3.518 0 0 1 1.094-4.053c1.444-1.15 3.501-2.33 6.285-3.475zM37.532 23.196l-5.786 14.731h-1.077l-4.058-8.244c-.884-1.796.092-3.944 2.036-4.482 2.582-.712 5.528-1.389 8.885-2.005zM32.144 20.589l3.204-7.667h6.224l-2.762 7.024c-1.965.165-4.228.374-6.666.643z" fill="#121314"/>
        <path d="M11.572 38.63c-1.352-4.252-3.554-12.665 31.943-17.777 0 0-19.075.933-32.805 5.302-9.97 3.177.867 12.47.867 12.47l-.005.005z" fill="#121314"/>
    </g>
    <defs>
        <clipPath id="sbg7hwhpsa">
            <path fill="#fff" d="M0 0h188v47H0z"/>
        </clipPath>
    </defs>
</svg>
