<svg width="124" height="31" viewBox="0 0 124 31" fill="none" xmlns="http://www.w3.org/2000/svg">
<path d="M63.3879 17.6876L58.7195 5.92862L54.0787 17.6091C55.2861 17.5722 56.5074 17.5491 57.7563 17.5491C59.6827 17.5491 61.5583 17.5953 63.3879 17.6876ZM102.134 29.6105C92.129 25.2522 80.8772 22.0251 67.6577 20.9355L71.6832 30.73H68.5679L64.593 20.7231C62.3717 20.6008 60.0951 20.5315 57.7609 20.5315C56.1064 20.5315 54.4796 20.5662 52.8805 20.6308L48.8688 30.73H45.7511L49.8319 20.7924C35.8082 21.7134 23.8652 25.0421 13.3739 29.6082V28.9918C20.3766 25.0768 27.2986 22.1543 34.7736 20.2453V14.2342L26.3561 1.28874H29.4853L36.1654 12.0459L42.8477 1.28874H45.9723L37.5548 14.2342V19.5874C41.8316 18.6571 46.3018 18.0431 51.0832 17.7499L58.0213 0.859375H59.4107L66.4042 17.8838C71.098 18.2601 75.4968 18.9503 79.7159 19.9637V3.53943H72.8377V1.28643H89.4376V3.53943H82.5617V20.7047C89.3431 22.6022 95.7075 25.363 102.132 28.9987V29.6128L102.134 29.6105ZM113.257 1.28643H96.6568V3.53943H103.533V23.8395H106.378V3.53943H113.254V1.28643H113.257ZM17.9663 23.8395H15.1206V12.713H2.84576V23.8395H0V1.28643H2.84576V10.4623H15.1206V1.28643H17.9663V23.8395Z" fill="white"/>
<path d="M120.765 3.04433C120.629 2.96354 120.411 2.92429 120.109 2.92429H119.645V4.0531H120.136C120.369 4.0531 120.54 4.02771 120.657 3.98385C120.869 3.89382 120.977 3.73455 120.977 3.49909C120.977 3.26363 120.906 3.12282 120.768 3.04433M120.18 2.55495C120.56 2.55495 120.844 2.59188 121.023 2.66344C121.341 2.79733 121.5 3.0628 121.5 3.45061C121.5 3.72531 121.401 3.93075 121.201 4.06464C121.093 4.13389 120.947 4.18007 120.752 4.21238C120.998 4.24932 121.173 4.35089 121.286 4.51478C121.394 4.67868 121.452 4.84027 121.452 4.99724V5.22346C121.452 5.29733 121.454 5.37351 121.459 5.45199C121.464 5.53509 121.473 5.58818 121.487 5.61589L121.505 5.65282H120.998C120.998 5.65282 120.991 5.63204 120.989 5.62281C120.987 5.61127 120.987 5.59742 120.982 5.58588L120.968 5.48662V5.23962C120.968 4.88412 120.867 4.64636 120.675 4.53094C120.558 4.46631 120.36 4.43168 120.069 4.43168H119.641V5.65282H119.092V2.55264H120.175L120.18 2.55495ZM118.523 2.39567C118.051 2.8712 117.816 3.44599 117.816 4.11774C117.816 4.78948 118.049 5.3712 118.519 5.84673C118.989 6.32456 119.56 6.56233 120.233 6.56233C120.906 6.56233 121.477 6.32687 121.95 5.84673C122.418 5.36889 122.655 4.7941 122.655 4.11774C122.655 3.44138 122.42 2.8712 121.95 2.39567C121.473 1.92245 120.901 1.68468 120.233 1.68468C119.565 1.68468 118.996 1.92245 118.523 2.39567ZM122.226 6.1145C121.678 6.67082 121.014 6.94783 120.233 6.94783C119.452 6.94783 118.788 6.67082 118.238 6.1145C117.694 5.56048 117.422 4.89566 117.422 4.11312C117.422 3.33057 117.696 2.67268 118.247 2.12097C118.795 1.57158 119.457 1.29688 120.231 1.29688C121.005 1.29688 121.676 1.57158 122.224 2.12097C122.777 2.66576 123.051 3.33288 123.051 4.11312C123.051 4.89335 122.777 5.55818 122.224 6.1145" fill="white"/>
</svg>
