<?xml version="1.0" encoding="UTF-8"?>
<svg xmlns="http://www.w3.org/2000/svg" xmlns:xlink="http://www.w3.org/1999/xlink" id="Layer_1" x="0px" y="0px" viewBox="0 0 240 70" style="enable-background:new 0 0 240 70;" xml:space="preserve">
  <style type="text/css">	.st0{fill:#FFFFFF;}</style>
  <g id="Group_11066-2" transform="translate(0 0)">	<path id="Path_1331" class="st0" d="M68.3,29.2h5.5c2,0,4.3,0.5,4.3,3c0,1-0.6,2-1.6,2.4c1.2,0.4,2.1,1.5,2,2.8   c0,2.8-2.1,3.7-4.6,3.7h-5.7V29.2z M71.3,33.8h2.4c0.6,0.1,1.2-0.4,1.3-1c0,0,0-0.1,0-0.1c0-0.9-0.6-1.1-1.3-1.1h-2.4V33.8z    M71.3,38.5h2.5c1,0,1.7-0.3,1.7-1.3c0-1-0.7-1.4-1.7-1.4h-2.5V38.5z"></path>	<path id="Path_1332" class="st0" d="M90.4,36.1c0,3.4-1.6,5.1-5.2,5.1c-3.6,0-5.2-1.7-5.2-5.1v-6.9h3.1v7.1c0,1.5,0.6,2.3,2.1,2.3   c1.5,0,2.1-0.8,2.1-2.3v-7.1h3.1L90.4,36.1z"></path>	<path id="Path_1333" class="st0" d="M100.4,33.4c-0.2-1.2-1.2-2-2.4-1.8c-2,0-2.7,1.8-2.7,3.5c0,1.8,0.8,3.5,2.7,3.5   c1.2,0.1,2.3-0.8,2.4-2c0-0.1,0-0.1,0-0.2h3.1c-0.2,3-2.4,4.8-5.4,4.8c-3.6,0-5.9-2.7-5.9-6.2s2.3-6.2,5.9-6.2   c2.6,0,5.3,1.6,5.4,4.5L100.4,33.4z"></path>	<path id="Path_1334" class="st0" d="M105.1,29.2h3.1v4.5l3.9-4.5h3.8l-4.4,4.7l4.9,7.2h-3.8l-3.2-5l-1.3,1.3V41h-3.1V29.2z"></path>	<path id="Path_1335" class="st0" d="M117.4,29.2h9.4v2.5h-6.3v2.1h5.8v2.4h-5.8v2.3h6.5V41h-9.6V29.2z"></path>	<path id="Path_1336" class="st0" d="M134.7,36.6V41h-3.1v-4.4l-4.3-7.4h3.5l2.4,4.8l2.3-4.8h3.5L134.7,36.6z"></path>	<path id="Path_1337" class="st0" d="M139.8,29.2h9.4v2.5h-6.3v2.1h5.8v2.4h-5.8v2.3h6.5V41h-9.6V29.2z"></path>	<path id="Path_1338" class="st0" d="M161.7,29.2c0.5,0,1,0.1,1.4,0.2c0.4,0.1,0.8,0.4,1.1,0.7c0.3,0.3,0.6,0.7,0.7,1.1   c0.3,0.9,0.3,1.9,0,2.8c-0.2,0.4-0.4,0.8-0.7,1.1c-0.3,0.3-0.7,0.5-1.1,0.7c-0.5,0.2-1,0.2-1.4,0.2h-4.1V41h-1.1V29.2L161.7,29.2z    M161.5,35c0.7,0,1.4-0.2,1.9-0.6c0.5-0.5,0.8-1.1,0.7-1.8c0.1-0.7-0.2-1.4-0.7-1.8c-0.5-0.4-1.2-0.6-1.9-0.6h-3.9V35L161.5,35z"></path>	<path id="Path_1339" class="st0" d="M170.7,29.2l4.6,11.8h-1.2l-1.4-3.7h-5.4l-1.4,3.7h-1.2l4.8-11.8H170.7z M172.3,36.4l-2.3-6.1   l-2.4,6.1H172.3z"></path>	<path id="Path_1340" class="st0" d="M182.2,29.2c0.5,0,0.9,0.1,1.4,0.2c0.4,0.1,0.8,0.3,1.1,0.6c0.3,0.3,0.6,0.6,0.8,1   c0.2,0.4,0.3,0.9,0.3,1.4c0,0.7-0.2,1.4-0.6,2c-0.4,0.6-1,0.9-1.7,1.1v0c0.3,0,0.7,0.1,1,0.3c0.2,0.1,0.5,0.3,0.6,0.6   c0.2,0.2,0.3,0.5,0.3,0.8c0.1,0.3,0.1,0.7,0.1,1c0,0.2,0,0.4,0,0.7c0,0.3,0,0.6,0.1,0.9c0,0.3,0.1,0.6,0.2,0.8   c0.1,0.2,0.2,0.4,0.3,0.6h-1.2c-0.1-0.1-0.1-0.3-0.2-0.4c0-0.2-0.1-0.3-0.1-0.5c0-0.2,0-0.3,0-0.5c0-0.2,0-0.3,0-0.4   c0-0.4-0.1-0.8-0.1-1.3c0-0.4-0.1-0.8-0.3-1.1c-0.2-0.3-0.4-0.6-0.7-0.8c-0.4-0.2-0.8-0.3-1.3-0.3h-4.3V41h-1.1V29.2L182.2,29.2z    M182.1,34.8c0.3,0,0.7-0.1,1-0.2c0.3-0.1,0.6-0.3,0.8-0.5c0.2-0.2,0.4-0.4,0.6-0.7c0.1-0.3,0.2-0.6,0.2-1c0-0.6-0.2-1.3-0.6-1.7   c-0.5-0.5-1.2-0.7-1.9-0.6h-4.2v4.7L182.1,34.8z"></path>	<path id="Path_1341" class="st0" d="M196.4,29.2v1h-4.1V41h-1.1V30.1H187v-1H196.4z"></path>	<path id="Path_1342" class="st0" d="M199.1,29.2l6.9,10h0v-10h1.1V41h-1.3L199,31h0v10h-1.1V29.2L199.1,29.2z"></path>	<path id="Path_1343" class="st0" d="M218,29.2v1h-7v4.3h6.6v1h-6.6V40h7.1v1h-8.3V29.2L218,29.2z"></path>	<path id="Path_1344" class="st0" d="M225.4,29.2c0.5,0,0.9,0.1,1.4,0.2c0.4,0.1,0.8,0.3,1.1,0.6c0.3,0.3,0.6,0.6,0.8,1   c0.2,0.4,0.3,0.9,0.3,1.4c0,0.7-0.2,1.4-0.6,2c-0.4,0.6-1,0.9-1.7,1.1v0c0.3,0,0.7,0.1,1,0.3c0.2,0.1,0.5,0.3,0.6,0.6   c0.2,0.2,0.3,0.5,0.3,0.8c0.1,0.3,0.1,0.7,0.1,1c0,0.2,0,0.4,0,0.7c0,0.3,0,0.6,0.1,0.9c0,0.3,0.1,0.6,0.2,0.8   c0.1,0.2,0.2,0.4,0.3,0.6h-1.2c-0.1-0.1-0.1-0.3-0.2-0.4c0-0.2-0.1-0.3-0.1-0.5c0-0.2,0-0.3,0-0.5c0-0.2,0-0.3,0-0.4   c0-0.4-0.1-0.8-0.1-1.3c0-0.4-0.1-0.8-0.3-1.1c-0.2-0.3-0.4-0.6-0.7-0.8c-0.4-0.2-0.8-0.3-1.3-0.3h-4.3V41H220V29.2L225.4,29.2z    M225.3,34.8c0.3,0,0.7-0.1,1-0.2c0.3-0.1,0.6-0.3,0.8-0.5c0.2-0.2,0.4-0.4,0.6-0.7c0.1-0.3,0.2-0.6,0.2-1c0-0.6-0.2-1.3-0.6-1.7   c-0.5-0.5-1.2-0.7-1.9-0.6h-4.2v4.7L225.3,34.8z"></path>	<path id="Path_1345" class="st0" d="M232.2,38.6c0.2,0.4,0.5,0.7,0.8,1c0.4,0.3,0.8,0.4,1.2,0.5c0.5,0.1,1,0.2,1.5,0.2   c0.3,0,0.7,0,1-0.1c0.4-0.1,0.7-0.2,1-0.4c0.3-0.2,0.6-0.4,0.8-0.7c0.2-0.3,0.3-0.7,0.3-1.1c0-0.3-0.1-0.6-0.2-0.9   c-0.1-0.2-0.3-0.5-0.6-0.6c-0.2-0.2-0.5-0.3-0.8-0.4c-0.3-0.1-0.6-0.2-0.8-0.3l-2.6-0.6c-0.3-0.1-0.7-0.2-1-0.3   c-0.3-0.1-0.6-0.3-0.9-0.5c-0.2-0.2-0.4-0.5-0.6-0.8c-0.2-0.4-0.2-0.8-0.2-1.2c0-0.3,0.1-0.7,0.2-1c0.1-0.4,0.3-0.8,0.6-1.1   c0.4-0.4,0.8-0.7,1.3-0.9c0.6-0.3,1.3-0.4,2-0.4c0.6,0,1.1,0.1,1.7,0.2c0.5,0.1,1,0.4,1.4,0.7c0.9,0.7,1.3,1.7,1.3,2.8h-1.1   c0-0.4-0.1-0.8-0.3-1.2c-0.2-0.3-0.4-0.6-0.7-0.8c-0.3-0.2-0.6-0.4-1-0.5c-0.4-0.1-0.8-0.2-1.2-0.2c-0.4,0-0.8,0-1.1,0.1   c-0.3,0.1-0.7,0.2-0.9,0.4c-0.3,0.2-0.5,0.4-0.7,0.7c-0.2,0.3-0.3,0.7-0.2,1.1c0,0.2,0,0.5,0.1,0.7c0.1,0.2,0.2,0.4,0.4,0.5   c0.2,0.1,0.4,0.3,0.6,0.3c0.2,0.1,0.5,0.2,0.7,0.2l2.9,0.7c0.4,0.1,0.8,0.2,1.2,0.4c0.4,0.2,0.7,0.4,1,0.6c0.3,0.2,0.5,0.5,0.7,0.9   c0.2,0.4,0.3,0.8,0.2,1.2c0,0.2,0,0.4,0,0.5c0,0.2-0.1,0.5-0.2,0.7c-0.1,0.3-0.3,0.5-0.5,0.8c-0.2,0.3-0.5,0.5-0.8,0.7   c-0.4,0.2-0.8,0.4-1.3,0.5c-0.6,0.1-1.2,0.2-1.8,0.2c-0.7,0-1.3-0.1-1.9-0.2c-0.6-0.1-1.1-0.4-1.5-0.7c-0.4-0.3-0.8-0.8-1-1.3   c-0.2-0.6-0.3-1.2-0.3-1.9h1.1C231.8,37.6,231.9,38.2,232.2,38.6"></path>	<path id="Path_1346" class="st0" d="M34.3,35c0,5.5,4.5,10,10,10l0,0c5.5,0,10-4.5,10-10c0-5.5-4.5-10-10-10   C38.8,25,34.3,29.5,34.3,35L34.3,35 M44.3,26.1c4.9,0,8.9,4,8.9,8.9s-4,8.9-8.9,8.9c-4.9,0-8.9-4-8.9-8.9v0   C35.4,30.1,39.4,26.1,44.3,26.1"></path>	<path id="Path_1347" class="st0" d="M41,50.3L41,50.3c8.4,0,15.3-6.8,15.3-15.3c0-8.4-6.8-15.3-15.3-15.3   c-8.4,0-15.3,6.8-15.3,15.3C25.7,43.4,32.6,50.3,41,50.3 M55.2,35c0,7.8-6.4,14.2-14.2,14.2l0,0c-7.8-0.1-14.1-6.5-14.1-14.3   c0.1-7.8,6.3-14,14.1-14.1l0,0l0,0C48.8,20.8,55.2,27.2,55.2,35 M41,20.6L41,20.6z"></path>	<path id="Path_1348" class="st0" d="M37.7,55.6L37.7,55.6c11.4,0,20.6-9.2,20.6-20.6c0-11.4-9.2-20.6-20.6-20.6   c-11.4,0-20.6,9.2-20.6,20.6C17.2,46.3,26.4,55.5,37.7,55.6 M37.7,15.5L37.7,15.5c10.8,0.1,19.4,8.9,19.3,19.6   C57,45.8,48.4,54.4,37.7,54.5l0,0c-10.8-0.1-19.4-8.9-19.3-19.6C18.4,24.2,27.1,15.6,37.7,15.5"></path>	<path id="Path_1349" class="st0" d="M16.1,53.3c4.8,4.9,11.4,7.6,18.3,7.6l0,0c14.3,0,25.8-11.6,25.8-25.8   c0-14.3-11.6-25.8-25.8-25.8C20.1,9.2,8.6,20.7,8.6,35C8.6,41.9,11.3,48.4,16.1,53.3 M9.7,35c0-13.7,11.1-24.7,24.7-24.7   S59.2,21.3,59.2,35S48.1,59.7,34.4,59.7C20.7,59.7,9.7,48.7,9.7,35"></path>	<path id="Path_1350" class="st0" d="M31.1,3.9C13.9,3.9,0,17.8,0,35s13.9,31.1,31.1,31.1c17.2,0,31.1-13.9,31.1-31.1   C62.2,17.8,48.3,3.9,31.1,3.9 M31.1,5L31.1,5c16.6,0,30,13.4,30,30c0,16.6-13.4,30-30,30c-16.6,0-30-13.4-30-30   C1.1,18.4,14.6,5,31.1,5"></path></g>
</svg>
