<svg version="1.2" xmlns="http://www.w3.org/2000/svg" viewBox="0 0 1521 449" width="1521" height="449">
	<title>sixthstreetspecialtylending-svg</title>
	<style>
		.s0 { fill: #1f5583 } 
	</style>
	<g id="Layer">
		<g id="Layer">
			<g id="Logo_Base_3_">
				<path id="Layer" class="s0" d="m395.7 3.4h6.1v439.6h-6.1z"/>
				<g id="Layer">
					<path id="Layer" class="s0" d="m306.2 37.9c-5.4-4-12.1-8.6-20.3-13h-190.3q-9.5 5.8-17.9 13z"/>
					<path id="Layer" class="s0" d="m256.2 11.8c-18.9-6.4-41.7-11.1-68.7-11.1-24.4 0-46.1 3.9-65.3 11.1z"/>
					<path id="Layer" class="s0" d="m313.1 64l8.9-12.3q0 0-0.7-0.8h-257.4c-3.9 4.1-7.5 8.5-11.1 13.1z"/>
					<path id="Layer" class="s0" d="m278.3 111.8l6.3-8.8h-18.1c5.1 3.7 9.1 6.8 11.8 8.8z"/>
					<path id="Layer" class="s0" d="m303.6 77h-88.1c11.1 3.3 21.5 8 30.5 13h48.1z"/>
					<path id="Layer" class="s0" d="m145 83.7c5-2.8 10-5 15-6.7h-116.3c-2.8 4.2-5.3 8.5-7.8 13h99.5q4.5-3.4 9.6-6.3z"/>
					<path id="Layer" class="s0" d="m111.4 116.1c3-4.5 6.2-8.9 9.9-13.1h-92q-3.1 6.4-5.7 13.1z"/>
					<path id="Layer" class="s0" d="m98 142.1c1.8-4.3 3.7-8.7 5.9-13h-85.2c-0.4 1-0.7 2-1.1 3q-1.7 5-3.2 10.1c0 0 83.6 0 83.6-0.1z"/>
					<path id="Layer" class="s0" d="m234.7 168.2c-34.8-10.3-66.9-7.7-92.6 0z"/>
					<path id="Layer" class="s0" d="m90 168.2c1-4.2 2.1-8.5 3.5-13h-82.7q-1.6 6.5-3 13z"/>
					<path id="Layer" class="s0" d="m287.5 194.3c-6.2-4.7-13-9.1-20.7-13.1h-155.5c-7.5 4.3-13.8 8.8-18.6 13.1z"/>
					<path id="Layer" class="s0" d="m85.6 194.3c0.3-3.5 0.9-7.9 1.8-13.1h-82q-1.1 6.6-1.9 13.1z"/>
					<path id="Layer" class="s0" d="m118 363.7h-92.8c2.1 3.9 4.8 8.3 8.1 13h108c-8.5-3.2-16.4-7.6-23.3-13z"/>
					<path id="Layer" class="s0" d="m55 402.8h241.6c4.3-4.3 8-8.7 11.4-13.1h-264.9c3.5 4.4 7.5 8.7 11.9 13.1z"/>
					<path id="Layer" class="s0" d="m89 311.5h-80.9q1.4 6.7 2.9 13.1h80.4c-1.2-4.2-2-8.6-2.4-13.1z"/>
					<path id="Layer" class="s0" d="m96.5 337.6h-82.1q1.6 5.5 3.2 10.7c0 0 0.4 0.8 1 2.4h86.3q-4.9-6.2-8.4-13.1z"/>
					<path id="Layer" class="s0" d="m91.4 285.5h-87.5c0.5 4.4 1.2 8.7 1.9 13h83.2c0.4-4.4 1.2-8.8 2.4-13z"/>
					<path id="Layer" class="s0" d="m302.3 207.3h-300.2q-0.5 6.6-0.8 13h311.9q-4.8-6.7-10.9-13z"/>
					<path id="Layer" class="s0" d="m105 259.4h-103.5q0.3 6.6 0.9 13.1h94.2q3.5-7 8.4-13.1z"/>
					<path id="Layer" class="s0" d="m141.7 233.4h-140.8c-0.1 4.3-0.1 8.7 0 13h117.3c6.9-5.4 14.9-9.9 23.5-13z"/>
					<path id="Layer" class="s0" d="m89.5 428.7h171.2c7.8-3.9 14.7-8.2 20.9-12.9h-211.7c5.9 4.6 12.4 9 19.6 12.9z"/>
					<path id="Layer" class="s0" d="m240.5 350.7h88.4q0.2-0.6 0.3-1.1c1.2-3.5 2.4-7.5 3.4-12h-83.7c-2.3 4.6-5.2 9-8.4 13.1z"/>
					<path id="Layer" class="s0" d="m254 324.6h81.1q0.9-6.2 1.4-13h-80.1c-0.4 4.4-1.2 8.8-2.4 13z"/>
					<path id="Layer" class="s0" d="m256.4 298.5h80.6q0-6.4-0.6-13h-82.4c1.2 4.2 2 8.6 2.4 13z"/>
					<path id="Layer" class="s0" d="m248.8 272.5h86c-0.8-4.4-1.8-8.7-3-13.1h-91.4c3.3 4.1 6.1 8.5 8.4 13.1z"/>
					<path id="Layer" class="s0" d="m167.9 448.3c21.8 0 40.8-2.4 57.3-6.5h-104.5c14 4.1 29.7 6.5 47.2 6.5z"/>
					<path id="Layer" class="s0" d="m204 376.7h112.8c2.7-4.5 4.9-8.8 6.9-13h-96.3c-6.9 5.4-14.8 9.8-23.4 13z"/>
					<path id="Layer" class="s0" d="m203.7 233.4c8.6 3.1 16.5 7.5 23.5 13h100.3c-1.8-4.4-3.8-8.8-6.1-13z"/>
				</g>
			</g>
			<g id="Outlined_text_3_">
				<g id="Layer">
					<path id="Layer" class="s0" d="m464.4 130.3l19.1-22.8c13.2 10.9 27.1 17.8 43.9 17.8 13.2 0 21.2-5.2 21.2-13.9v-0.4c0-8.2-5-12.4-29.6-18.6-29.6-7.6-48.7-15.8-48.7-45v-0.4c0-26.6 21.4-44.3 51.4-44.3 21.4 0 39.7 6.8 54.6 18.7l-16.8 24.4c-13-9.1-25.8-14.5-38.2-14.5-12.4 0-18.9 5.6-18.9 12.8v0.4c0 9.6 6.3 12.8 31.7 19.3 29.8 7.7 46.6 18.5 46.6 44v0.5c0 29.1-22.3 45.5-54 45.5-22.2 0-44.7-7.7-62.3-23.5z"/>
					<path id="Layer" class="s0" d="m612.1 4.8h32.4v146.9h-32.4z"/>
					<path id="Layer" class="s0" d="m727.4 77l-49.1-72.2h37.7l30.7 47.6 31.2-47.6h36.7l-49.1 71.8 51.2 75.1h-37.7l-33-50.3-33.1 50.3h-36.8z"/>
					<path id="Layer" class="s0" d="m875.1 34.6h-44.7v-29.8h121.7v29.8h-44.7v117.1h-32.3v-117.1z"/>
					<path id="Layer" class="s0" d="m985 4.8h32.3v58.2h59.6v-58.2h32.4v146.9h-32.4v-58.9h-59.6v58.9h-32.3z"/>
				</g>
				<g id="Layer">
					<path id="Layer" class="s0" d="m464.4 312.9l19.1-22.9c13.2 10.9 27.1 17.8 43.9 17.8 13.2 0 21.2-5.2 21.2-13.8v-0.4c0-8.2-5-12.4-29.6-18.7-29.6-7.6-48.7-15.7-48.7-44.9v-0.4c0-26.7 21.4-44.3 51.4-44.3 21.4 0 39.7 6.7 54.6 18.6l-16.8 24.4c-13-9-25.8-14.5-38.2-14.5-12.4 0-18.9 5.7-18.9 12.8v0.4c0 9.7 6.3 12.8 31.7 19.3 29.8 7.8 46.6 18.5 46.6 44.1v0.4c0 29.2-22.3 45.6-54 45.6-22.2 0-44.7-7.8-62.3-23.5z"/>
					<path id="Layer" class="s0" d="m638 217.2h-44.7v-29.9h121.7v29.9h-44.7v117.1h-32.3v-117.1z"/>
					<path id="Layer" fill-rule="evenodd" class="s0" d="m739.7 187.4h67.2c18.7 0 33.1 5.2 42.8 14.9 8.2 8.2 12.6 19.7 12.6 33.6v0.4c0 23.7-12.8 38.6-31.5 45.5l35.9 52.5h-37.8l-31.5-47h-25.4v47h-32.3c0 0 0-146.9 0-146.9zm65.1 71.3c15.7 0 24.7-8.4 24.7-20.7v-0.5c0-13.8-9.6-21-25.4-21h-32.1v42.2z"/>
					<path id="Layer" class="s0" d="m895.6 187.4h110.8v28.7h-78.7v29.8h69.3v28.8h-69.3v30.8h79.8v28.8h-111.9z"/>
					<path id="Layer" class="s0" d="m1044.6 187.4h110.8v28.7h-78.7v29.8h69.3v28.8h-69.3v30.8h79.8v28.8h-111.9z"/>
					<path id="Layer" class="s0" d="m1227.6 217.2h-44.7v-29.9h121.7v29.9h-44.6v117.1h-32.4v-117.1z"/>
				</g>
			</g>
		</g>
		<g id="Layer">
			<path id="Layer" class="s0" d="m476.4 393.2q0.9 2.1 3 3.7 2.1 1.7 5.9 3.1 3.7 1.4 9.6 2.6 11.8 2.6 17.5 7.3 5.6 4.6 5.6 12.9 0 4.5-1.8 8.3-1.8 3.8-5 6.4-3.1 2.6-7.6 4.1-4.5 1.4-9.7 1.4-8.5 0-15.6-2.8-7-2.7-13.4-8.5l5-5.9q5.5 5.1 11.2 7.6 5.7 2.5 13.1 2.5 7.2 0 11.5-3.4 4.3-3.3 4.3-8.8 0-2.6-0.8-4.5-0.8-2-2.9-3.6-2-1.7-5.6-3-3.6-1.3-9.2-2.5-6.1-1.3-10.6-3.1-4.5-1.7-7.5-4.1-2.9-2.5-4.3-5.7-1.5-3.3-1.5-7.7 0-4.3 1.8-7.8 1.7-3.6 4.8-6.2 3.2-2.6 7.4-4 4.3-1.5 9.3-1.5 7.8 0 13.7 2.1 5.8 2.2 11.3 6.5l-4.7 6.2q-5-4.1-10-5.9-5-1.8-10.5-1.8-3.4 0-6.2 0.9-2.8 0.9-4.8 2.4-1.9 1.6-3 3.7-1.1 2.1-1.1 4.6 0 2.5 0.8 4.5z"/>
			<path id="Layer" fill-rule="evenodd" class="s0" d="m584.2 403.8q-2.3 4.3-6.1 7.2-3.8 3-8.8 4.5-5.1 1.4-10.8 1.4h-17.2v25.1h-8v-71h26.5q6 0 10.9 1.6 5 1.5 8.5 4.4 3.4 2.9 5.3 7.1 1.9 4.2 1.9 9.5 0 5.8-2.2 10.2zm-11-21.5q-5.3-3.9-13.9-3.9h-18v31.2h17.6q4.3 0 8-1.1 3.6-1.1 6.1-3.2 2.6-2.1 4-5 1.4-2.8 1.4-6.4 0-7.7-5.2-11.6z"/>
			<path id="Layer" class="s0" d="m651.3 378.3h-43.3v24.2h38.7v7.3h-38.7v24.9h43.8v7.3h-51.8v-71h51.3z"/>
			<path id="Layer" class="s0" d="m721.9 435.8q-3 2.3-6.4 3.9-3.4 1.7-7.4 2.6-3.9 0.9-8.8 0.9-7.7 0-14.2-2.8-6.5-2.9-11.2-7.8-4.8-4.9-7.5-11.6-2.7-6.7-2.7-14.4 0-7.6 2.7-14.3 2.7-6.7 7.5-11.7 4.7-5 11.3-7.9 6.6-2.9 14.4-2.9 4.9 0 8.8 0.8 3.9 0.8 7.2 2.3 3.4 1.5 6.2 3.5 2.8 2.1 5.5 4.6l-5.5 5.9q-4.6-4.2-9.8-7-5.2-2.7-12.5-2.7-5.9 0-10.9 2.2-5 2.3-8.7 6.2-3.7 4-5.8 9.3-2.1 5.3-2.1 11.5 0 6.2 2.1 11.5 2.1 5.4 5.8 9.4 3.7 3.9 8.7 6.2 5 2.3 10.9 2.3 7.3 0 12.5-2.7 5.3-2.7 10.4-7.5l5.3 5.1q-2.8 2.9-5.8 5.1z"/>
			<path id="Layer" class="s0" d="m741.4 371h8v71h-8z"/>
			<path id="Layer" fill-rule="evenodd" class="s0" d="m835.2 442h-8.6l-8.3-18.8h-38.6l-8.5 18.8h-8.2l32.4-71.5h7.5zm-36.2-62l-16.2 36.2h32.3z"/>
			<path id="Layer" class="s0" d="m848.2 371h8v63.6h39.9v7.4h-47.9z"/>
			<path id="Layer" class="s0" d="m926.5 442h-8v-63.6h-23.8v-7.4h55.6v7.4h-23.8z"/>
			<path id="Layer" class="s0" d="m994.6 442h-8v-28.1l-29.5-42.9h9.7l23.9 35.5 24.1-35.5h9.3l-29.5 42.8c0 0 0 28.2 0 28.2z"/>
			<path id="Layer" class="s0" d="m1065.3 371h8.1v63.6h39.9v7.4h-48z"/>
			<path id="Layer" class="s0" d="m1178.3 378.3h-43.2v24.2h38.7v7.3h-38.7v24.9h43.7v7.3h-51.7v-71h51.2z"/>
			<path id="Layer" class="s0" d="m1246.1 371h7.8v71h-6.3l-45.9-58.2v58.2h-7.8v-71h7.5l44.7 56.9c0 0 0-56.9 0-56.9z"/>
			<path id="Layer" fill-rule="evenodd" class="s0" d="m1332.6 420.4q-2.8 6.6-7.8 11.3-5 4.8-11.9 7.5-7 2.8-15.3 2.8h-24.6v-71h24.6q8.3 0 15.3 2.7 6.9 2.7 11.9 7.5 5 4.7 7.8 11.2 2.7 6.5 2.7 14 0 7.5-2.7 14zm-7.7-24.9q-2-5.1-5.9-8.9-3.8-3.8-9.2-6-5.5-2.2-12.2-2.2h-16.6v56.2h16.6q6.7 0 12.2-2.2 5.4-2.1 9.2-5.9 3.9-3.8 5.9-8.9 2.1-5 2.1-11 0-5.9-2.1-11.1z"/>
			<path id="Layer" class="s0" d="m1351.9 371h8v71h-8z"/>
			<path id="Layer" class="s0" d="m1431.9 371h7.8v71h-6.4l-45.8-58.2v58.2h-7.8v-71h7.5l44.7 56.9z"/>
			<path id="Layer" class="s0" d="m1508 440q-7.3 3.2-16.3 3.2-8.4 0-15.1-2.8-6.6-2.9-11.3-7.9-4.7-4.9-7.2-11.6-2.5-6.7-2.5-14.3 0-7.3 2.6-14 2.6-6.7 7.2-11.8 4.7-5 11.2-8 6.6-3 14.6-3 4.4 0 8.1 0.6 3.7 0.6 6.9 1.8 3.2 1.2 6 3 2.8 1.8 5.4 4l-5.1 6.1q-2.1-1.8-4.3-3.3-2.2-1.5-4.8-2.5-2.6-1.1-5.7-1.7-3.1-0.6-6.8-0.6-5.9 0-10.9 2.3-4.9 2.4-8.5 6.3-3.5 4-5.6 9.3-2 5.3-2 11.3 0 6.4 2 11.9 2 5.4 5.6 9.4 3.7 3.9 8.8 6.2 5.2 2.2 11.7 2.2 6.1 0 11.4-2.1 5.4-2.1 9.1-5v-17.7h-21.6v-7.1h29.3v28.2q-5 4.4-12.2 7.6z"/>
		</g>
	</g>
</svg>